<?xml version="1.0" encoding="UTF-8" standalone="no"?>
<!-- Created with Inkscape (http://www.inkscape.org/) -->

<svg
   xmlns:dc="http://purl.org/dc/elements/1.1/"
   xmlns:cc="http://creativecommons.org/ns#"
   xmlns:rdf="http://www.w3.org/1999/02/22-rdf-syntax-ns#"
   xmlns:svg="http://www.w3.org/2000/svg"
   xmlns="http://www.w3.org/2000/svg"
   xmlns:sodipodi="http://sodipodi.sourceforge.net/DTD/sodipodi-0.dtd"
   xmlns:inkscape="http://www.inkscape.org/namespaces/inkscape"
   width="990"
   height="765"
   id="svg2"
   version="1.1"
   inkscape:version="0.48.4 r9939"
   sodipodi:docname="grader.svg">
  <defs
     id="defs4">
    <marker
       inkscape:stockid="Arrow1Lend"
       orient="auto"
       refY="0.0"
       refX="0.0"
       id="Arrow1Lend"
       style="overflow:visible;">
      <path
         id="path3878"
         d="M 0.0,0.0 L 5.0,-5.0 L -12.5,0.0 L 5.0,5.0 L 0.0,0.0 z "
         style="fill-rule:evenodd;stroke:#000000;stroke-width:1.0pt;"
         transform="scale(0.8) rotate(180) translate(12.5,0)" />
    </marker>
    <marker
       inkscape:stockid="Arrow1Mend"
       orient="auto"
       refY="0.0"
       refX="0.0"
       id="Arrow1Mend"
       style="overflow:visible;">
      <path
         id="path3884"
         d="M 0.0,0.0 L 5.0,-5.0 L -12.5,0.0 L 5.0,5.0 L 0.0,0.0 z "
         style="fill-rule:evenodd;stroke:#000000;stroke-width:1.0pt;"
         transform="scale(0.4) rotate(180) translate(10,0)" />
    </marker>
  </defs>
  <sodipodi:namedview
     id="base"
     pagecolor="#ffffff"
     bordercolor="#666666"
     borderopacity="1.0"
     inkscape:pageopacity="0.0"
     inkscape:pageshadow="2"
     inkscape:zoom="0.98994949"
     inkscape:cx="609.32666"
     inkscape:cy="410.90845"
     inkscape:document-units="in"
     inkscape:current-layer="layer1"
     showgrid="false"
     inkscape:window-width="1920"
     inkscape:window-height="1025"
     inkscape:window-x="0"
     inkscape:window-y="27"
     inkscape:window-maximized="1">
    <inkscape:grid
       type="xygrid"
       id="grid3753"
       empspacing="4"
       visible="true"
       enabled="true"
       snapvisiblegridlinesonly="true"
       units="in"
       spacingx="0.25in"
       spacingy="0.25in" />
  </sodipodi:namedview>
  <metadata
     id="metadata7">
    <rdf:RDF>
      <cc:Work
         rdf:about="">
        <dc:format>image/svg+xml</dc:format>
        <dc:type
           rdf:resource="http://purl.org/dc/dcmitype/StillImage" />
        <dc:title></dc:title>
      </cc:Work>
    </rdf:RDF>
  </metadata>
  <g
     inkscape:label="Layer 1"
     inkscape:groupmode="layer"
     id="layer1"
     transform="translate(0,-287.36218)">
    <path
       style="fill:#ffffff;fill-opacity:1;stroke:#dddddd;stroke-width:11.25000000000000000;stroke-miterlimit:4;stroke-opacity:1;stroke-dasharray:none;stroke-dashoffset:0"
       d="m 450,90 0,112.5"
       id="path5653"
       inkscape:connector-curvature="0"
       transform="translate(0,287.36218)"
       sodipodi:nodetypes="cc" />
    <path
       style="fill:#ffffff;fill-opacity:1;stroke:#dddddd;stroke-width:11.25000000000000000;stroke-miterlimit:4;stroke-opacity:1;stroke-dasharray:none;stroke-dashoffset:0"
       d="m 787.5,90 0,562.5 0,0"
       id="path5649"
       inkscape:connector-curvature="0"
       transform="translate(0,287.36218)" />
    <path
       style="fill:none;stroke:#dddddd;stroke-width:11.25000000000000000;stroke-miterlimit:4;stroke-opacity:1;stroke-dasharray:none;stroke-dashoffset:0"
       d="m 112.5,90 0,562.5"
       id="path5647"
       inkscape:connector-curvature="0"
       transform="translate(0,287.36218)" />
    <rect
       style="fill:#dddddd;fill-opacity:1;stroke:none"
       id="rect5655"
       width="135"
       height="45"
       x="45"
       y="45"
       transform="translate(0,287.36218)"
       ry="9"
       rx="9" />
    <g
       style="font-size:12px;font-style:normal;font-variant:normal;font-weight:normal;font-stretch:normal;line-height:125%;letter-spacing:0px;word-spacing:0px;fill:#000000;fill-opacity:1;stroke:none;font-family:Nimbus Sans L;-inkscape-font-specification:Nimbus Sans L"
       id="text3755">
      <path
         d="m 71.870063,346.82218 c -0.036,-5.14799 -3.564007,-8.136 -9.612001,-8.136 -5.759994,0 -9.323999,2.95201 -9.323999,7.704 0,3.204 1.692003,5.22 5.147999,6.12 l 6.516,1.728 c 3.311997,0.864 4.824001,2.196 4.824001,4.248 0,1.404 -0.756002,2.844 -1.872001,3.636 -1.043998,0.72 -2.700002,1.116 -4.824,1.116 -2.843997,0 -4.788001,-0.684 -6.047999,-2.196 -0.972,-1.152 -1.404,-2.412 -1.368001,-4.032 l -3.167999,0 c 0.036,2.412 0.504001,3.996 1.547999,5.436 1.799999,2.448 4.824004,3.744 8.820001,3.744 3.131996,0 5.688001,-0.72 7.379999,-2.016 1.763999,-1.404 2.88,-3.744 2.88,-6.012 0,-3.23999 -2.016003,-5.616 -5.58,-6.588 l -6.587999,-1.764 c -3.167997,-0.864 -4.32,-1.872 -4.32,-3.888 0,-2.66399 2.340003,-4.428 5.868,-4.428 4.175995,0 6.516,1.90801 6.551999,5.328 l 3.168001,0"
         style="font-size:36px;text-align:center;text-anchor:middle"
         id="path3419" />
      <path
         d="m 83.604938,346.49818 -3.096,0 0,-5.184 -2.988,0 0,5.184 -2.556,0 0,2.448 2.556,0 0,14.256 c 0,1.908 1.296002,2.988 3.635999,2.988 0.72,0 1.440002,-0.072 2.448001,-0.252 l 0,-2.52 c -0.396,0.108 -0.864001,0.144 -1.440001,0.144 -1.295998,0 -1.655999,-0.36 -1.655999,-1.692 l 0,-12.924 3.096,0 0,-2.448"
         style="font-size:36px;text-align:center;text-anchor:middle"
         id="path3421" />
      <path
         d="m 101.79731,365.36218 0,-18.864 -2.987997,0 0,10.692 c 0,3.852 -2.016004,6.372 -5.148,6.372 -2.375998,0 -3.888,-1.44 -3.888,-3.708 l 0,-13.356 -2.988,0 0,14.544 c 0,3.132 2.340003,5.148 6.012,5.148 2.771997,0 4.536001,-0.972 6.299999,-3.456 l 0,2.628 2.699998,0"
         style="font-size:36px;text-align:center;text-anchor:middle"
         id="path3423" />
      <path
         d="m 122.30437,339.11818 -2.988,0 0,9.756 c -1.25999,-1.908 -3.276,-2.916 -5.79599,-2.916 -4.896,0 -8.1,3.92401 -8.1,9.936 0,6.372 3.132,10.296 8.208,10.296 2.59199,0 4.392,-0.972 6.012,-3.312 l 0,2.484 2.66399,0 0,-26.244 m -8.27999,9.648 c 3.23999,0 5.29199,2.88001 5.29199,7.38 0,4.356 -2.088,7.236 -5.256,7.236 -3.31199,0 -5.508,-2.916 -5.508,-7.308 0,-4.39199 2.19601,-7.308 5.47201,-7.308"
         style="font-size:36px;text-align:center;text-anchor:middle"
         id="path3425" />
      <path
         d="m 142.99144,356.93818 c 0,-2.87999 -0.216,-4.608 -0.756,-6.012 -1.224,-3.09599 -4.10401,-4.968 -7.632,-4.968 -5.256,0 -8.64,4.03201 -8.64,10.224 0,6.192 3.276,10.008 8.568,10.008 4.31999,0 7.308,-2.448 8.064,-6.552 l -3.024,0 c -0.828,2.484 -2.52,3.78 -4.932,3.78 -1.908,0 -3.528,-0.864 -4.536,-2.448 -0.72,-1.08 -0.972,-2.16 -1.008,-4.032 l 13.896,0 m -13.824,-2.448 c 0.252,-3.49199 2.376,-5.76 5.4,-5.76 2.95199,0 5.22,2.44801 5.22,5.544 0,0.072 0,0.144 -0.036,0.216 l -10.584,0"
         style="font-size:36px;text-align:center;text-anchor:middle"
         id="path3427" />
      <path
         d="m 147.0825,346.49818 0,18.864 3.024,0 0,-10.404 c 0,-3.85199 2.016,-6.372 5.112,-6.372 2.376,0 3.888,1.44 3.888,3.708 l 0,13.068 2.988,0 0,-14.256 c 0,-3.13199 -2.34,-5.148 -5.976,-5.148 -2.808,0 -4.608,1.08001 -6.264,3.708 l 0,-3.168 -2.772,0"
         style="font-size:36px;text-align:center;text-anchor:middle"
         id="path3429" />
      <path
         d="m 173.74556,346.49818 -3.096,0 0,-5.184 -2.988,0 0,5.184 -2.556,0 0,2.448 2.556,0 0,14.256 c 0,1.908 1.296,2.988 3.636,2.988 0.72,0 1.44,-0.072 2.448,-0.252 l 0,-2.52 c -0.396,0.108 -0.864,0.144 -1.44,0.144 -1.296,0 -1.656,-0.36 -1.656,-1.692 l 0,-12.924 3.096,0 0,-2.448"
         style="font-size:36px;text-align:center;text-anchor:middle"
         id="path3431" />
    </g>
    <rect
       style="fill:#dddddd;fill-opacity:1;stroke:none"
       id="rect5657"
       width="180"
       height="45"
       x="360"
       y="45"
       transform="translate(0,287.36218)"
       ry="9"
       rx="9" />
    <g
       style="font-size:12px;font-style:normal;font-variant:normal;font-weight:normal;font-stretch:normal;line-height:125%;letter-spacing:0px;word-spacing:0px;fill:#000000;fill-opacity:1;stroke:none;font-family:Nimbus Sans L;-inkscape-font-specification:Nimbus Sans L"
       id="text3755-3">
      <path
         d="m 371.079,365.36218 10.116,0 c 6.62399,0 10.692,-4.96801 10.692,-13.14 0,-8.13599 -4.03201,-13.104 -10.692,-13.104 l -10.116,0 0,26.244 m 3.348,-2.952 0,-20.34 6.192,0 c 5.18399,0 7.92,3.49201 7.92,10.188 0,6.624 -2.73601,10.152 -7.92,10.152 l -6.192,0"
         style="font-size:36px;text-align:center;text-anchor:middle"
         id="path3400" />
      <path
         d="m 412.35863,356.93818 c 0,-2.87999 -0.21601,-4.608 -0.75601,-6.012 -1.22399,-3.09599 -4.104,-4.968 -7.632,-4.968 -5.25599,0 -8.64,4.03201 -8.64,10.224 0,6.192 3.27601,10.008 8.568,10.008 4.32,0 7.30801,-2.448 8.064,-6.552 l -3.024,0 c -0.82799,2.484 -2.52,3.78 -4.932,3.78 -1.90799,0 -3.528,-0.864 -4.536,-2.448 -0.71999,-1.08 -0.972,-2.16 -1.008,-4.032 l 13.89601,0 m -13.82401,-2.448 c 0.252,-3.49199 2.37601,-5.76 5.4,-5.76 2.952,0 5.22,2.44801 5.22,5.544 0,0.072 0,0.144 -0.036,0.216 l -10.584,0"
         style="font-size:36px;text-align:center;text-anchor:middle"
         id="path3402" />
      <path
         d="m 424.18969,365.36218 7.236,-18.864 -3.384,0 -5.328,15.3 -5.04,-15.3 -3.384,0 6.624,18.864 3.276,0"
         style="font-size:36px;text-align:center;text-anchor:middle"
         id="path3404" />
      <path
         d="m 450.39769,356.93818 c 0,-2.87999 -0.216,-4.608 -0.756,-6.012 -1.224,-3.09599 -4.10401,-4.968 -7.632,-4.968 -5.256,0 -8.64,4.03201 -8.64,10.224 0,6.192 3.276,10.008 8.568,10.008 4.31999,0 7.308,-2.448 8.064,-6.552 l -3.024,0 c -0.828,2.484 -2.52,3.78 -4.932,3.78 -1.908,0 -3.528,-0.864 -4.536,-2.448 -0.72,-1.08 -0.972,-2.16 -1.008,-4.032 l 13.896,0 m -13.824,-2.448 c 0.252,-3.49199 2.376,-5.76 5.4,-5.76 2.95199,0 5.22,2.44801 5.22,5.544 0,0.072 0,0.144 -0.036,0.216 l -10.584,0"
         style="font-size:36px;text-align:center;text-anchor:middle"
         id="path3406" />
      <path
         d="m 457.44075,339.11818 -3.024,0 0,26.244 3.024,0 0,-26.244"
         style="font-size:36px;text-align:center;text-anchor:middle"
         id="path3408" />
      <path
         d="m 469.77638,345.95818 c -5.292,0 -8.49601,3.78001 -8.49601,10.116 0,6.336 3.16801,10.116 8.532,10.116 5.292,0 8.53201,-3.78 8.53201,-9.972 0,-6.51599 -3.13201,-10.26 -8.568,-10.26 m 0.036,2.772 c 3.384,0 5.4,2.77201 5.4,7.452 0,4.428 -2.088,7.236 -5.4,7.236 -3.34799,0 -5.4,-2.772 -5.4,-7.344 0,-4.53599 2.05201,-7.344 5.4,-7.344"
         style="font-size:36px;text-align:center;text-anchor:middle"
         id="path3410" />
      <path
         d="m 481.96744,373.21018 3.024,0 0,-9.828 c 1.584,1.944 3.348,2.808 5.796,2.808 4.85999,0 8.064,-3.924 8.064,-9.936 0,-6.33599 -3.09601,-10.296 -8.1,-10.296 -2.556,0 -4.608,1.152 -6.012,3.384 l 0,-2.844 -2.772,0 0,26.712 m 8.28,-24.444 c 3.31199,0 5.472,2.91601 5.472,7.416 0,4.284 -2.19601,7.2 -5.472,7.2 -3.168,0 -5.256,-2.88 -5.256,-7.308 0,-4.42799 2.088,-7.308 5.256,-7.308"
         style="font-size:36px;text-align:center;text-anchor:middle"
         id="path3412" />
      <path
         d="m 518.5305,356.93818 c 0,-2.87999 -0.216,-4.608 -0.756,-6.012 -1.224,-3.09599 -4.104,-4.968 -7.632,-4.968 -5.25599,0 -8.64,4.03201 -8.64,10.224 0,6.192 3.27601,10.008 8.568,10.008 4.32,0 7.308,-2.448 8.064,-6.552 l -3.024,0 c -0.828,2.484 -2.52,3.78 -4.932,3.78 -1.908,0 -3.528,-0.864 -4.536,-2.448 -0.72,-1.08 -0.972,-2.16 -1.008,-4.032 l 13.896,0 m -13.824,-2.448 c 0.252,-3.49199 2.376,-5.76 5.4,-5.76 2.952,0 5.22,2.44801 5.22,5.544 0,0.072 0,0.144 -0.036,0.216 l -10.584,0"
         style="font-size:36px;text-align:center;text-anchor:middle"
         id="path3414" />
      <path
         d="m 522.58556,346.49818 0,18.864 3.024,0 0,-9.792 c 0,-2.69999 0.684,-4.464 2.124,-5.508 0.936,-0.684 1.836,-0.9 3.924,-0.936 l 0,-3.06 c -0.504,-0.072 -0.756,-0.108 -1.152,-0.108 -1.944,0 -3.42,1.15201 -5.148,3.96 l 0,-3.42 -2.772,0"
         style="font-size:36px;text-align:center;text-anchor:middle"
         id="path3416" />
    </g>
    <rect
       style="fill:#dddddd;fill-opacity:1;stroke:none"
       id="rect5659"
       width="135"
       height="45"
       x="720"
       y="45"
       transform="translate(0,287.36218)"
       ry="9"
       rx="9" />
    <g
       style="font-size:12px;font-style:normal;font-variant:normal;font-weight:normal;font-stretch:normal;line-height:125%;letter-spacing:0px;word-spacing:0px;fill:#000000;fill-opacity:1;stroke:none;font-family:Nimbus Sans L;-inkscape-font-specification:Nimbus Sans L"
       id="text3755-7">
      <path
         d="m 756.94978,351.50218 -10.944,0 0,2.952 7.992,0 0,0.72 c 0,4.68 -3.456,8.064 -8.244,8.064 -2.664,0 -5.076,-0.972 -6.624,-2.664 -1.728,-1.872 -2.772,-5.004 -2.772,-8.244 0,-6.44399 3.67201,-10.692 9.216,-10.692 3.996,0 6.876,2.05201 7.596,5.436 l 3.42,0 c -0.936,-5.32799 -4.968,-8.388 -10.98,-8.388 -3.204,0 -5.796,0.828 -7.848,2.52 -3.024,2.52 -4.752,6.58801 -4.752,11.304 0,8.06399 4.93201,13.68 12.024,13.68 3.564,0 6.408,-1.332 8.964,-4.176 l 0.828,3.492 2.124,0 0,-14.004"
         style="font-size:36px;text-align:center;text-anchor:middle"
         id="path3387" />
      <path
         d="m 761.89416,346.49818 0,18.864 3.024,0 0,-9.792 c 0,-2.69999 0.684,-4.464 2.124,-5.508 0.936,-0.684 1.836,-0.9 3.924,-0.936 l 0,-3.06 c -0.504,-0.072 -0.756,-0.108 -1.152,-0.108 -1.944,0 -3.42001,1.15201 -5.148,3.96 l 0,-3.42 -2.772,0"
         style="font-size:36px;text-align:center;text-anchor:middle"
         id="path3389" />
      <path
         d="m 790.69359,363.59818 c -0.324,0.072 -0.468,0.072 -0.648,0.072 -1.044,0 -1.62,-0.54 -1.62,-1.476 l 0,-11.088 c 0,-3.34799 -2.448,-5.148 -7.092,-5.148 -2.73599,0 -5.004,0.792 -6.264,2.196 -0.864,0.972 -1.224,2.052 -1.296,3.924 l 3.024,0 c 0.252,-2.304 1.62001,-3.348 4.428,-3.348 2.7,0 4.212,1.008 4.212,2.808 l 0,0.792 c 0,1.26 -0.756,1.8 -3.132,2.088 -4.24799,0.54 -4.896,0.684 -6.048,1.152 -2.19599,0.9 -3.312,2.59201 -3.312,5.04 0,3.42 2.37601,5.58 6.192,5.58 2.376,0 4.28401,-0.828 6.408,-2.772 0.216,1.908 1.15201,2.772 3.096,2.772 0.612,0 1.08,-0.072 2.052,-0.324 l 0,-2.268 m -5.256,-4.176 c 0,1.008 -0.288,1.62 -1.188,2.448 -1.224,1.116 -2.7,1.692 -4.464,1.692 -2.33999,0 -3.708,-1.116 -3.708,-3.024 0,-1.98 1.33201,-2.988 4.536,-3.456 3.168,-0.432 3.816,-0.576 4.824,-1.044 l 0,3.384"
         style="font-size:36px;text-align:center;text-anchor:middle"
         id="path3391" />
      <path
         d="m 809.29266,339.11818 -2.988,0 0,9.756 c -1.26,-1.908 -3.27601,-2.916 -5.796,-2.916 -4.896,0 -8.1,3.92401 -8.1,9.936 0,6.372 3.132,10.296 8.208,10.296 2.59199,0 4.392,-0.972 6.012,-3.312 l 0,2.484 2.664,0 0,-26.244 m -8.28,9.648 c 3.23999,0 5.292,2.88001 5.292,7.38 0,4.356 -2.08801,7.236 -5.256,7.236 -3.312,0 -5.508,-2.916 -5.508,-7.308 0,-4.39199 2.196,-7.308 5.472,-7.308"
         style="font-size:36px;text-align:center;text-anchor:middle"
         id="path3393" />
      <path
         d="m 829.97972,356.93818 c 0,-2.87999 -0.216,-4.608 -0.756,-6.012 -1.224,-3.09599 -4.104,-4.968 -7.632,-4.968 -5.256,0 -8.64,4.03201 -8.64,10.224 0,6.192 3.276,10.008 8.568,10.008 4.31999,0 7.308,-2.448 8.064,-6.552 l -3.024,0 c -0.828,2.484 -2.52,3.78 -4.932,3.78 -1.908,0 -3.528,-0.864 -4.536,-2.448 -0.72,-1.08 -0.972,-2.16 -1.008,-4.032 l 13.896,0 m -13.824,-2.448 c 0.252,-3.49199 2.376,-5.76 5.4,-5.76 2.952,0 5.22,2.44801 5.22,5.544 0,0.072 0,0.144 -0.036,0.216 l -10.584,0"
         style="font-size:36px;text-align:center;text-anchor:middle"
         id="path3395" />
      <path
         d="m 834.03478,346.49818 0,18.864 3.024,0 0,-9.792 c 0,-2.69999 0.684,-4.464 2.124,-5.508 0.936,-0.684 1.836,-0.9 3.924,-0.936 l 0,-3.06 c -0.504,-0.072 -0.756,-0.108 -1.152,-0.108 -1.944,0 -3.42,1.15201 -5.148,3.96 l 0,-3.42 -2.772,0"
         style="font-size:36px;text-align:center;text-anchor:middle"
         id="path3397" />
    </g>
    <rect
       style="fill:#ffffff;stroke:#000000;stroke-width:2.50000000000000000;stroke-miterlimit:4;stroke-opacity:1;stroke-dasharray:none;fill-opacity:1"
       id="rect3812"
       width="135"
       height="90"
       x="382.5"
       y="112.5"
       transform="translate(0,287.36218)" />
    <g
       style="font-size:12px;font-style:normal;font-variant:normal;font-weight:normal;font-stretch:normal;line-height:125%;letter-spacing:0px;word-spacing:0px;fill:#000000;fill-opacity:1;stroke:none;font-family:Nimbus Sans L;-inkscape-font-specification:Nimbus Sans L"
       id="text3755-7-3">
      <path
         d="m 402.68175,428.59419 6.412,0 c 1.596,0 2.85601,-0.47601 3.948,-1.456 1.232,-1.12 1.764,-2.43601 1.764,-4.312 0,-3.836 -2.268,-5.992 -6.3,-5.992 l -8.428,0 0,20.412 2.604,0 0,-8.652 m 0,-2.296 0,-7.168 5.432,0 c 2.492,0 3.976,1.344 3.976,3.584 0,2.23999 -1.484,3.584 -3.976,3.584 l -5.432,0"
         style="font-size:28px;text-align:center;text-anchor:middle"
         id="path3352" />
      <path
         d="m 418.16488,422.57419 0,14.672 2.352,0 0,-7.616 c 0,-2.1 0.532,-3.47201 1.652,-4.284 0.728,-0.532 1.428,-0.7 3.052,-0.728 l 0,-2.38 c -0.392,-0.056 -0.588,-0.084 -0.896,-0.084 -1.512,0 -2.66,0.896 -4.004,3.08 l 0,-2.66 -2.156,0"
         style="font-size:28px;text-align:center;text-anchor:middle"
         id="path3354" />
      <path
         d="m 433.20044,422.15419 c -4.11599,0 -6.608,2.94 -6.608,7.868 0,4.92799 2.46401,7.868 6.636,7.868 4.116,0 6.636,-2.94001 6.636,-7.756 0,-5.068 -2.436,-7.98 -6.664,-7.98 m 0.028,2.156 c 2.632,0 4.2,2.156 4.2,5.796 0,3.44399 -1.624,5.628 -4.2,5.628 -2.604,0 -4.2,-2.15601 -4.2,-5.712 0,-3.528 1.596,-5.712 4.2,-5.712"
         style="font-size:28px;text-align:center;text-anchor:middle"
         id="path3356" />
      <path
         d="m 442.68238,416.83419 0,20.412 2.1,0 0,-1.876 c 1.12,1.70799 2.604,2.52 4.648,2.52 3.864,0 6.384,-3.16401 6.384,-8.036 0,-4.76 -2.408,-7.7 -6.272,-7.7 -2.016,0 -3.444,0.756 -4.536,2.408 l 0,-7.728 -2.324,0 m 6.412,7.504 c 2.604,0 4.284,2.268 4.284,5.768 0,3.33199 -1.736,5.6 -4.284,5.6 -2.464,0 -4.088,-2.24001 -4.088,-5.684 0,-3.444 1.624,-5.684 4.088,-5.684"
         style="font-size:28px;text-align:center;text-anchor:middle"
         id="path3358" />
      <path
         d="m 461.01232,416.83419 -2.352,0 0,20.412 2.352,0 0,-20.412"
         style="font-size:28px;text-align:center;text-anchor:middle"
         id="path3360" />
      <path
         d="m 477.35469,430.69419 c 0,-2.24 -0.168,-3.58401 -0.588,-4.676 -0.952,-2.408 -3.192,-3.864 -5.936,-3.864 -4.08799,0 -6.72,3.136 -6.72,7.952 0,4.81599 2.54801,7.784 6.664,7.784 3.36,0 5.684,-1.90401 6.272,-5.096 l -2.352,0 c -0.644,1.93199 -1.96,2.94 -3.836,2.94 -1.484,0 -2.744,-0.67201 -3.528,-1.904 -0.56,-0.84 -0.756,-1.68001 -0.784,-3.136 l 10.808,0 m -10.752,-1.904 c 0.196,-2.716 1.848,-4.48 4.2,-4.48 2.296,0 4.06,1.904 4.06,4.312 0,0.056 0,0.112 -0.028,0.168 l -8.232,0"
         style="font-size:28px;text-align:center;text-anchor:middle"
         id="path3362" />
      <path
         d="m 480.53663,422.57419 0,14.672 2.352,0 0,-9.212 c 0,-2.128 1.54,-3.836 3.444,-3.836 1.736,0 2.716,1.064 2.716,2.94 l 0,10.108 2.352,0 0,-9.212 c 0,-2.128 1.54,-3.836 3.444,-3.836 1.708,0 2.716,1.092 2.716,2.94 l 0,10.108 2.352,0 0,-11.004 c 0,-2.632 -1.512,-4.088 -4.256,-4.088 -1.96,0 -3.136,0.588 -4.508,2.24 -0.868,-1.568 -2.044,-2.24 -3.948,-2.24 -1.96,0 -3.248,0.728 -4.508,2.492 l 0,-2.072 -2.156,0"
         style="font-size:28px;text-align:center;text-anchor:middle"
         id="path3364" />
      <path
         d="m 393.81472,472.24619 7.868,0 c 5.152,0 8.316,-3.86401 8.316,-10.22 0,-6.328 -3.136,-10.192 -8.316,-10.192 l -7.868,0 0,20.412 m 2.604,-2.296 0,-15.82 4.816,0 c 4.032,0 6.16,2.716 6.16,7.924 0,5.15199 -2.128,7.896 -6.16,7.896 l -4.816,0"
         style="font-size:28px;text-align:center;text-anchor:middle"
         id="path3366" />
      <path
         d="m 425.9211,465.69419 c 0,-2.24 -0.168,-3.58401 -0.588,-4.676 -0.952,-2.408 -3.192,-3.864 -5.936,-3.864 -4.088,0 -6.72,3.136 -6.72,7.952 0,4.81599 2.548,7.784 6.664,7.784 3.36,0 5.684,-1.90401 6.272,-5.096 l -2.352,0 c -0.644,1.93199 -1.96,2.94 -3.836,2.94 -1.484,0 -2.744,-0.67201 -3.528,-1.904 -0.56,-0.84 -0.756,-1.68001 -0.784,-3.136 l 10.808,0 m -10.752,-1.904 c 0.196,-2.716 1.848,-4.48 4.2,-4.48 2.296,0 4.06,1.904 4.06,4.312 0,0.056 0,0.112 -0.028,0.168 l -8.232,0"
         style="font-size:28px;text-align:center;text-anchor:middle"
         id="path3368" />
      <path
         d="m 434.36704,457.57419 -2.436,0 0,-2.296 c 0,-0.98 0.56,-1.484 1.624,-1.484 0.196,0 0.28,0 0.812,0.028 l 0,-1.932 c -0.532,-0.112 -0.84,-0.14 -1.316,-0.14 -2.156,0 -3.444,1.232 -3.444,3.332 l 0,2.492 -1.96,0 0,1.904 1.96,0 0,12.768 2.324,0 0,-12.768 2.436,0 0,-1.904"
         style="font-size:28px;text-align:center;text-anchor:middle"
         id="path3370" />
      <path
         d="m 439.10866,457.57419 -2.324,0 0,14.672 2.324,0 0,-14.672 m 0,-5.74 -2.352,0 0,2.94 2.352,0 0,-2.94"
         style="font-size:28px;text-align:center;text-anchor:middle"
         id="path3372" />
      <path
         d="m 443.10304,457.57419 0,14.672 2.352,0 0,-8.092 c 0,-2.996 1.568,-4.956 3.976,-4.956 1.84799,0 3.024,1.12 3.024,2.884 l 0,10.164 2.324,0 0,-11.088 c 0,-2.436 -1.82001,-4.004 -4.648,-4.004 -2.184,0 -3.58401,0.84 -4.872,2.884 l 0,-2.464 -2.156,0"
         style="font-size:28px;text-align:center;text-anchor:middle"
         id="path3374" />
      <path
         d="m 460.92897,457.57419 -2.324,0 0,14.672 2.324,0 0,-14.672 m 0,-5.74 -2.352,0 0,2.94 2.352,0 0,-2.94"
         style="font-size:28px;text-align:center;text-anchor:middle"
         id="path3376" />
      <path
         d="m 470.07535,457.57419 -2.408,0 0,-4.032 -2.324,0 0,4.032 -1.988,0 0,1.904 1.988,0 0,11.088 c 0,1.48399 1.008,2.324 2.828,2.324 0.56,0 1.12,-0.056 1.904,-0.196 l 0,-1.96 c -0.308,0.084 -0.672,0.112 -1.12,0.112 -1.008,0 -1.288,-0.28001 -1.288,-1.316 l 0,-10.052 2.408,0 0,-1.904"
         style="font-size:28px;text-align:center;text-anchor:middle"
         id="path3378" />
      <path
         d="m 474.92897,457.57419 -2.324,0 0,14.672 2.324,0 0,-14.672 m 0,-5.74 -2.352,0 0,2.94 2.352,0 0,-2.94"
         style="font-size:28px;text-align:center;text-anchor:middle"
         id="path3380" />
      <path
         d="m 484.57935,457.15419 c -4.116,0 -6.608,2.94 -6.608,7.868 0,4.92799 2.464,7.868 6.636,7.868 4.11599,0 6.636,-2.94001 6.636,-7.756 0,-5.068 -2.43601,-7.98 -6.664,-7.98 m 0.028,2.156 c 2.632,0 4.2,2.156 4.2,5.796 0,3.44399 -1.624,5.628 -4.2,5.628 -2.604,0 -4.2,-2.15601 -4.2,-5.712 0,-3.528 1.596,-5.712 4.2,-5.712"
         style="font-size:28px;text-align:center;text-anchor:middle"
         id="path3382" />
      <path
         d="m 494.50929,457.57419 0,14.672 2.352,0 0,-8.092 c 0,-2.996 1.568,-4.956 3.976,-4.956 1.84799,0 3.024,1.12 3.024,2.884 l 0,10.164 2.324,0 0,-11.088 c 0,-2.436 -1.82001,-4.004 -4.648,-4.004 -2.184,0 -3.58401,0.84 -4.872,2.884 l 0,-2.464 -2.156,0"
         style="font-size:28px;text-align:center;text-anchor:middle"
         id="path3384" />
    </g>
    <rect
       style="fill:#ffffff;stroke:#000000;stroke-width:2.50000000000000000;stroke-miterlimit:4;stroke-opacity:1;stroke-dasharray:none;stroke-dashoffset:0;fill-opacity:1"
       id="rect4691"
       width="135"
       height="90"
       x="45"
       y="202.5"
       transform="translate(0,287.36218)" />
    <g
       style="font-size:12px;font-style:normal;font-variant:normal;font-weight:normal;font-stretch:normal;line-height:125%;letter-spacing:0px;word-spacing:0px;fill:#000000;fill-opacity:1;stroke:none;font-family:Nimbus Sans L;-inkscape-font-specification:Nimbus Sans L"
       id="text3755-7-3-6">
      <path
         d="m 80.898938,512.22789 c -0.028,-4.004 -2.772005,-6.328 -7.476,-6.328 -4.479996,0 -7.252001,2.296 -7.252001,5.992 0,2.492 1.316003,4.06 4.004,4.76 l 5.068,1.344 c 2.575998,0.672 3.752001,1.708 3.752001,3.304 0,1.092 -0.588001,2.212 -1.456,2.828 -0.812,0.56 -2.100002,0.868 -3.752001,0.868 -2.211997,0 -3.724,-0.532 -4.704,-1.708 -0.755999,-0.896 -1.091999,-1.876 -1.063999,-3.136 l -2.464001,0 c 0.028,1.876 0.392001,3.108 1.204001,4.228 1.399998,1.904 3.752003,2.912 6.859999,2.912 2.435998,0 4.424002,-0.56 5.74,-1.568 1.371999,-1.092 2.240001,-2.912 2.240001,-4.676 0,-2.52 -1.568003,-4.368 -4.34,-5.124 l -5.124,-1.372 c -2.463998,-0.672 -3.360001,-1.456 -3.360001,-3.024 0,-2.072 1.820003,-3.444 4.564,-3.444 3.247997,0 5.068001,1.484 5.096001,4.144 l 2.464,0"
         style="font-size:28px;text-align:center;text-anchor:middle"
         id="path3264" />
      <path
         d="m 90.026062,511.97589 -2.407999,0 0,-4.032 -2.324001,0 0,4.032 -1.988,0 0,1.904 1.988,0 0,11.088 c 0,1.484 1.008002,2.324 2.828,2.324 0.56,0 1.120001,-0.056 1.904,-0.196 l 0,-1.96 c -0.307999,0.084 -0.672,0.112 -1.119999,0.112 -1.007999,0 -1.288,-0.28 -1.288,-1.316 l 0,-10.052 2.407999,0 0,-1.904"
         style="font-size:28px;text-align:center;text-anchor:middle"
         id="path3266" />
      <path
         d="m 104.17569,526.64789 0,-14.672 -2.324,0 0,8.316 c 0,2.996 -1.568,4.956 -4.004002,4.956 -1.847999,0 -3.024,-1.12 -3.024,-2.884 l 0,-10.388 -2.324001,0 0,11.312 c 0,2.436 1.820003,4.004 4.676,4.004 2.155998,0 3.528003,-0.756 4.900003,-2.688 l 0,2.044 2.1,0"
         style="font-size:28px;text-align:center;text-anchor:middle"
         id="path3268" />
      <path
         d="m 120.12563,506.23589 -2.324,0 0,7.588 c -0.98,-1.484 -2.54801,-2.268 -4.508,-2.268 -3.808,0 -6.30001,3.052 -6.30001,7.728 0,4.95599 2.43601,8.008 6.384,8.008 2.016,0 3.41601,-0.756 4.676,-2.576 l 0,1.932 2.07201,0 0,-20.412 m -6.44,7.504 c 2.51999,0 4.116,2.24 4.116,5.74 0,3.38799 -1.62401,5.628 -4.088,5.628 -2.576,0 -4.284,-2.26801 -4.284,-5.684 0,-3.416 1.708,-5.684 4.256,-5.684"
         style="font-size:28px;text-align:center;text-anchor:middle"
         id="path3270" />
      <path
         d="m 136.21556,520.09589 c 0,-2.24 -0.168,-3.584 -0.588,-4.676 -0.952,-2.408 -3.192,-3.864 -5.936,-3.864 -4.08799,0 -6.72,3.136 -6.72,7.952 0,4.81599 2.54801,7.784 6.664,7.784 3.36,0 5.684,-1.90401 6.272,-5.096 l -2.352,0 c -0.644,1.932 -1.96,2.94 -3.836,2.94 -1.484,0 -2.744,-0.672 -3.528,-1.904 -0.56,-0.84 -0.756,-1.68 -0.784,-3.136 l 10.808,0 m -10.752,-1.904 c 0.196,-2.716 1.848,-4.48 4.2,-4.48 2.296,0 4.06,1.904 4.06,4.312 0,0.056 0,0.112 -0.028,0.168 l -8.232,0"
         style="font-size:28px;text-align:center;text-anchor:middle"
         id="path3272" />
      <path
         d="m 139.3975,511.97589 0,14.672 2.352,0 0,-8.092 c 0,-2.996 1.568,-4.956 3.976,-4.956 1.848,0 3.024,1.12 3.024,2.884 l 0,10.164 2.324,0 0,-11.088 c 0,-2.436 -1.82,-4.004 -4.648,-4.004 -2.184,0 -3.584,0.84 -4.872,2.884 l 0,-2.464 -2.156,0"
         style="font-size:28px;text-align:center;text-anchor:middle"
         id="path3274" />
      <path
         d="m 160.13544,511.97589 -2.408,0 0,-4.032 -2.324,0 0,4.032 -1.988,0 0,1.904 1.988,0 0,11.088 c 0,1.484 1.008,2.324 2.828,2.324 0.56,0 1.12,-0.056 1.904,-0.196 l 0,-1.96 c -0.308,0.084 -0.672,0.112 -1.12,0.112 -1.008,0 -1.288,-0.28 -1.288,-1.316 l 0,-10.052 2.408,0 0,-1.904"
         style="font-size:28px;text-align:center;text-anchor:middle"
         id="path3276" />
      <path
         d="m 100.65622,561.64789 5.18,-20.412 -2.912,0 -3.752001,16.576 -4.648,-16.576 -2.8,0 -4.536,16.576 -3.836,-16.576 -2.912,0 5.236,20.412 2.856,0 4.564,-16.772 4.704,16.772 2.856001,0"
         style="font-size:28px;text-align:center;text-anchor:middle"
         id="path3278" />
      <path
         d="m 113.85428,546.55589 c -4.11599,0 -6.608,2.94 -6.608,7.868 0,4.92799 2.46401,7.868 6.636,7.868 4.116,0 6.636,-2.94001 6.636,-7.756 0,-5.068 -2.436,-7.98 -6.664,-7.98 m 0.028,2.156 c 2.632,0 4.2,2.156 4.2,5.796 0,3.44399 -1.624,5.628 -4.2,5.628 -2.604,0 -4.2,-2.15601 -4.2,-5.712 0,-3.528 1.596,-5.712 4.2,-5.712"
         style="font-size:28px;text-align:center;text-anchor:middle"
         id="path3280" />
      <path
         d="m 123.75622,546.97589 0,14.672 2.352,0 0,-7.616 c 0,-2.1 0.532,-3.472 1.652,-4.284 0.728,-0.532 1.428,-0.7 3.052,-0.728 l 0,-2.38 c -0.392,-0.056 -0.588,-0.084 -0.896,-0.084 -1.512,0 -2.66,0.896 -4.004,3.08 l 0,-2.66 -2.156,0"
         style="font-size:28px;text-align:center;text-anchor:middle"
         id="path3282" />
      <path
         d="m 135.12378,541.23589 -2.324,0 0,20.412 2.324,0 0,-5.712 2.268,-2.24 4.956,7.952 2.884,0 -5.992,-9.604 5.096,-5.068 -2.996,0 -6.216,6.216 0,-11.956"
         style="font-size:28px;text-align:center;text-anchor:middle"
         id="path3284" />
    </g>
    <rect
       style="fill:#ffffff;stroke:#000000;stroke-width:2.50000000000000000;stroke-miterlimit:4;stroke-opacity:1;stroke-dasharray:none;stroke-dashoffset:0;fill-opacity:1"
       id="rect4693"
       width="135"
       height="90"
       x="720"
       y="292.5"
       transform="translate(0,287.36218)" />
    <g
       style="font-size:28px;font-style:italic;font-variant:normal;font-weight:normal;font-stretch:normal;line-height:125%;letter-spacing:0px;word-spacing:0px;fill:#000000;fill-opacity:1;stroke:none;font-family:Nimbus Sans L;-inkscape-font-specification:Nimbus Sans L Italic"
       id="text4501">
      <path
         d="m 241.47315,459.17418 -2.492,0 -3.556,16.744 -7,-16.744 -2.912,0 -4.34,20.412 2.492,0 3.528,-16.548 6.972,16.548 2.968,0 4.34,-20.412"
         style=""
         id="path3335" />
      <path
         d="m 250.03153,464.49418 c -2.604,0 -4.90001,1.176 -6.328,3.248 -1.26,1.792 -2.184,4.872 -2.184,7.252 0,3.108 2.156,5.236 5.292,5.236 2.68799,0 4.816,-1.092 6.384,-3.248 1.28799,-1.764 2.212,-4.816 2.212,-7.252 0,-1.484 -0.56001,-2.912 -1.54,-3.864 -0.952,-0.924 -2.21201,-1.372 -3.836,-1.372 m -0.364,2.156 c 2.07199,0 3.276,1.344 3.276,3.612 0,1.652 -0.476,3.472 -1.232,4.872 -1.064,1.932 -2.57601,2.94 -4.508,2.94 -1.988,0 -3.22,-1.4 -3.22,-3.64 0,-1.596 0.476,-3.444 1.232,-4.844 1.03599,-1.904 2.604,-2.94 4.452,-2.94"
         style=""
         id="path3337" />
      <path
         d="m 265.11346,464.91418 -2.492,0 0.868,-4.032 -2.352,0 -0.868,4.032 -1.988,0 -0.392,1.876 1.988,0 -2.212,10.36 c -0.056,0.28 -0.084,0.588 -0.084,0.868 0,1.372 0.952,2.212 2.492,2.212 0.56,0 1.428,-0.084 1.82,-0.196 l 0.448,-2.044 c -0.868,0.196 -1.008,0.224 -1.344,0.224 -0.616,0 -1.008,-0.308 -1.008,-0.756 0,-0.084 0.028,-0.224 0.056,-0.392 l 2.184,-10.276 2.492,0 0.392,-1.876"
         style=""
         id="path3339" />
      <path
         d="m 278.39509,473.03418 0.084,-0.476 c 0.252,-1.344 0.392,-2.52 0.392,-3.276 0,-2.688 -2.324,-4.788 -5.348,-4.788 -2.436,0 -4.788,1.148 -6.188,3.024 -1.316,1.764 -2.352,4.956 -2.352,7.224 0,1.512 0.644,3.052 1.736,4.088 0.98,0.952 2.212,1.4 3.808,1.4 3.35999,0 6.244,-2.072 7.112,-5.096 l -2.352,0 c -1.008,1.932 -2.492,2.94 -4.368,2.94 -2.212,0 -3.472,-1.372 -3.472,-3.752 0,-0.588 0.028,-0.868 0.14,-1.288 l 10.808,0 m -10.304,-2.016 c 0.728,-2.576 2.8,-4.368 5.068,-4.368 1.988,0 3.248,1.344 3.248,3.444 0,0.28 -0.028,0.476 -0.084,0.924 l -8.232,0"
         style=""
         id="path3341" />
      <path
         d="m 284.06903,459.17418 -4.34,20.412 2.1,0 0.476,-2.184 c 0.364,0.868 0.616,1.26 1.036,1.68 0.728,0.728 1.876,1.148 3.108,1.148 1.87599,0 3.864,-0.868 5.124,-2.184 1.87599,-1.988 3.108,-5.18 3.108,-8.064 0,-3.136 -2.12801,-5.488 -4.956,-5.488 -1.12,0 -2.38001,0.336 -3.22,0.84 -0.476,0.308 -0.84001,0.616 -1.708,1.54 l 1.624,-7.7 -2.352,0 m 4.872,7.476 c 2.04399,0 3.276,1.456 3.276,3.864 0,1.596 -0.47601,3.388 -1.288,4.732 -1.148,1.904 -2.60401,2.828 -4.424,2.828 -1.904,0 -3.108,-1.4 -3.108,-3.612 0,-1.736 0.504,-3.64 1.288,-4.984 1.09199,-1.848 2.576,-2.828 4.256,-2.828"
         style=""
         id="path3343" />
      <path
         d="m 304.55496,464.49418 c -2.60399,0 -4.9,1.176 -6.328,3.248 -1.26,1.792 -2.184,4.872 -2.184,7.252 0,3.108 2.15601,5.236 5.292,5.236 2.688,0 4.816,-1.092 6.384,-3.248 1.288,-1.764 2.212,-4.816 2.212,-7.252 0,-1.484 -0.56,-2.912 -1.54,-3.864 -0.952,-0.924 -2.212,-1.372 -3.836,-1.372 m -0.364,2.156 c 2.072,0 3.276,1.344 3.276,3.612 0,1.652 -0.476,3.472 -1.232,4.872 -1.064,1.932 -2.576,2.94 -4.508,2.94 -1.98799,0 -3.22,-1.4 -3.22,-3.64 0,-1.596 0.476,-3.444 1.232,-4.844 1.036,-1.904 2.60401,-2.94 4.452,-2.94"
         style=""
         id="path3345" />
      <path
         d="m 320.1409,464.49418 c -2.604,0 -4.9,1.176 -6.328,3.248 -1.26,1.792 -2.184,4.872 -2.184,7.252 0,3.108 2.156,5.236 5.292,5.236 2.688,0 4.816,-1.092 6.384,-3.248 1.288,-1.764 2.212,-4.816 2.212,-7.252 0,-1.484 -0.56,-2.912 -1.54,-3.864 -0.952,-0.924 -2.212,-1.372 -3.836,-1.372 m -0.364,2.156 c 2.072,0 3.276,1.344 3.276,3.612 0,1.652 -0.476,3.472 -1.232,4.872 -1.064,1.932 -2.576,2.94 -4.508,2.94 -1.988,0 -3.22,-1.4 -3.22,-3.64 0,-1.596 0.476,-3.444 1.232,-4.844 1.036,-1.904 2.604,-2.94 4.452,-2.94"
         style=""
         id="path3347" />
      <path
         d="m 333.29084,459.17418 -2.352,0 -4.34,20.412 2.352,0 1.204,-5.684 2.996,-2.464 3.192,8.148 2.688,0 -3.92,-9.604 6.216,-5.068 -3.024,0 -7.532,6.104 2.52,-11.844"
         style=""
         id="path3349" />
    </g>
    <rect
       style="fill:#ffffff;stroke:#000000;stroke-width:2.50000000000000000;stroke-miterlimit:4;stroke-opacity:1;stroke-dasharray:none;stroke-dashoffset:0;fill-opacity:1"
       id="rect4699"
       width="90"
       height="45"
       x="742.5"
       y="180"
       transform="translate(0,287.36218)" />
    <rect
       style="fill:#ffffff;stroke:#000000;stroke-width:2.50000000000000000;stroke-miterlimit:4;stroke-opacity:1;stroke-dasharray:none;stroke-dashoffset:0;fill-opacity:1"
       id="rect4701"
       width="135"
       height="90"
       x="45"
       y="382.5"
       transform="translate(0,287.36218)" />
    <rect
       style="fill:#ffffff;stroke:#000000;stroke-width:2.50000000000000000;stroke-miterlimit:4;stroke-opacity:1;stroke-dasharray:none;stroke-dashoffset:0;fill-opacity:1"
       id="rect4703"
       width="135"
       height="90"
       x="720"
       y="472.5"
       transform="translate(0,287.36218)" />
    <rect
       style="fill:#ffffff;stroke:#000000;stroke-width:2.50000000000000000;stroke-miterlimit:4;stroke-opacity:1;stroke-dasharray:none;stroke-dashoffset:0;fill-opacity:1"
       id="rect4705"
       width="135"
       height="45"
       x="45"
       y="540"
       transform="translate(0,287.36218)" />
    <rect
       style="fill:#ffffff;stroke:#000000;stroke-width:2.50000000000000000;stroke-miterlimit:4;stroke-opacity:1;stroke-dasharray:none;stroke-dashoffset:0;fill-opacity:1"
       id="rect4707"
       width="90"
       height="45"
       x="742.5"
       y="585"
       transform="translate(0,287.36218)" />
    <path
       style="fill:none;stroke:#000000;stroke-width:1.50000000000000000;stroke-miterlimit:4;stroke-opacity:1;stroke-dasharray:none;stroke-dashoffset:0;marker-end:url(#Arrow1Lend)"
       d="m 382.5,202.5 -202.5,0"
       id="path5275"
       inkscape:connector-curvature="0"
       transform="translate(0,287.36218)" />
    <path
       style="fill:none;stroke:#000000;stroke-width:1.50000000000000000;stroke-miterlimit:4;stroke-opacity:1;stroke-dasharray:none;stroke-dashoffset:0;marker-end:url(#Arrow1Lend)"
       d="m 517.5,202.5 225,0"
       id="path5277"
       inkscape:connector-curvature="0"
       transform="translate(0,287.36218)" />
    <path
       style="fill:none;stroke:#000000;stroke-width:1.50000000000000000;stroke-miterlimit:4;stroke-opacity:1;stroke-dasharray:none;stroke-dashoffset:0;marker-end:url(#Arrow1Lend)"
       d="m 180,292.5 540,0"
       id="path5279"
       inkscape:connector-curvature="0"
       transform="translate(0,287.36218)" />
    <path
       style="fill:none;stroke:#000000;stroke-width:1.50000000000000000;stroke-miterlimit:4;stroke-opacity:1;stroke-dasharray:none;stroke-dashoffset:0;marker-end:url(#Arrow1Lend)"
       d="m 720,382.5 -540,0"
       id="path5281"
       inkscape:connector-curvature="0"
       transform="translate(0,287.36218)" />
    <path
       style="fill:none;stroke:#000000;stroke-width:1.50000000000000000;stroke-miterlimit:4;stroke-opacity:1;stroke-dasharray:none;stroke-dashoffset:0;marker-end:url(#Arrow1Lend)"
       d="m 180,472.5 540,0"
       id="path5283"
       inkscape:connector-curvature="0"
       transform="translate(0,287.36218)" />
    <path
       style="fill:none;stroke:#000000;stroke-width:1.5;stroke-miterlimit:4;stroke-opacity:1;stroke-dasharray:none;stroke-dashoffset:0;marker-end:url(#Arrow1Lend)"
       d="m 720,562.5 -540,0"
       id="path5285"
       inkscape:connector-curvature="0"
       transform="translate(0,287.36218)"
       sodipodi:nodetypes="cc" />
    <path
       style="fill:none;stroke:#000000;stroke-width:1.50000000000000000;stroke-miterlimit:4;stroke-opacity:1;stroke-dasharray:none;stroke-dashoffset:0;marker-end:url(#Arrow1Lend)"
       d="m 787.5,562.5 0,22.5"
       id="path5287"
       inkscape:connector-curvature="0"
       transform="translate(0,287.36218)" />
    <g
       style="font-size:12px;font-style:normal;font-variant:normal;font-weight:normal;font-stretch:normal;line-height:125%;letter-spacing:0px;word-spacing:0px;fill:#000000;fill-opacity:1;stroke:none;font-family:Nimbus Sans L;-inkscape-font-specification:Nimbus Sans L"
       id="text3755-7-3-6-2">
      <path
         d="m 770.63087,485.49418 c -0.028,-4.00399 -2.772,-6.328 -7.476,-6.328 -4.47999,0 -7.252,2.29601 -7.252,5.992 0,2.492 1.316,4.06001 4.004,4.76 l 5.068,1.344 c 2.576,0.672 3.752,1.70801 3.752,3.304 0,1.092 -0.588,2.21201 -1.456,2.828 -0.812,0.56 -2.1,0.868 -3.752,0.868 -2.212,0 -3.724,-0.532 -4.704,-1.708 -0.756,-0.89599 -1.092,-1.876 -1.064,-3.136 l -2.464,0 c 0.028,1.876 0.392,3.10801 1.204,4.228 1.4,1.904 3.752,2.912 6.86,2.912 2.436,0 4.424,-0.56 5.74,-1.568 1.372,-1.09199 2.24,-2.912 2.24,-4.676 0,-2.51999 -1.568,-4.368 -4.34,-5.124 l -5.124,-1.372 c -2.464,-0.67199 -3.36,-1.456 -3.36,-3.024 0,-2.07199 1.82,-3.444 4.564,-3.444 3.248,0 5.068,1.48401 5.096,4.144 l 2.464,0"
         style="font-size:28px;text-align:center;text-anchor:middle"
         id="path3287" />
      <path
         d="m 779.758,485.24218 -2.408,0 0,-4.032 -2.324,0 0,4.032 -1.988,0 0,1.904 1.988,0 0,11.088 c 0,1.484 1.008,2.324 2.828,2.324 0.56,0 1.12,-0.056 1.904,-0.196 l 0,-1.96 c -0.308,0.084 -0.672,0.112 -1.12,0.112 -1.008,0 -1.288,-0.28 -1.288,-1.316 l 0,-10.052 2.408,0 0,-1.904"
         style="font-size:28px;text-align:center;text-anchor:middle"
         id="path3289" />
      <path
         d="m 788.02762,484.82218 c -4.11599,0 -6.608,2.94001 -6.608,7.868 0,4.928 2.46401,7.868 6.636,7.868 4.116,0 6.636,-2.94 6.636,-7.756 0,-5.06799 -2.436,-7.98 -6.664,-7.98 m 0.028,2.156 c 2.632,0 4.2,2.15601 4.2,5.796 0,3.444 -1.624,5.628 -4.2,5.628 -2.604,0 -4.2,-2.156 -4.2,-5.712 0,-3.52799 1.596,-5.712 4.2,-5.712"
         style="font-size:28px;text-align:center;text-anchor:middle"
         id="path3291" />
      <path
         d="m 797.92956,485.24218 0,14.672 2.352,0 0,-7.616 c 0,-2.09999 0.532,-3.472 1.652,-4.284 0.728,-0.53199 1.428,-0.7 3.052,-0.728 l 0,-2.38 c -0.392,-0.056 -0.588,-0.084 -0.896,-0.084 -1.512,0 -2.66,0.89601 -4.004,3.08 l 0,-2.66 -2.156,0"
         style="font-size:28px;text-align:center;text-anchor:middle"
         id="path3293" />
      <path
         d="m 819.71312,493.36218 c 0,-2.23999 -0.168,-3.584 -0.588,-4.676 -0.952,-2.40799 -3.192,-3.864 -5.936,-3.864 -4.08799,0 -6.72,3.13601 -6.72,7.952 0,4.816 2.54801,7.784 6.664,7.784 3.36,0 5.684,-1.904 6.272,-5.096 l -2.352,0 c -0.644,1.932 -1.96,2.94 -3.836,2.94 -1.484,0 -2.744,-0.672 -3.528,-1.904 -0.56,-0.83999 -0.756,-1.68 -0.784,-3.136 l 10.808,0 m -10.752,-1.904 c 0.196,-2.71599 1.848,-4.48 4.2,-4.48 2.296,0 4.06,1.90401 4.06,4.312 0,0.056 0,0.112 -0.028,0.168 l -8.232,0"
         style="font-size:28px;text-align:center;text-anchor:middle"
         id="path3295" />
    </g>
    <g
       style="font-size:12px;font-style:normal;font-variant:normal;font-weight:normal;font-stretch:normal;line-height:125%;letter-spacing:0px;word-spacing:0px;fill:#000000;fill-opacity:1;stroke:none;font-family:Nimbus Sans L;-inkscape-font-specification:Nimbus Sans L"
       id="text3755-7-3-6-9">
      <path
         d="m 746.11292,596.83415 -2.604,0 0,20.412 12.684,0 0,-2.296 -10.08,0 0,-18.116"
         style="font-size:28px;text-align:center;text-anchor:middle"
         id="path3214" />
      <path
         d="m 764.47086,602.15415 c -4.116,0 -6.608,2.94001 -6.608,7.868 0,4.928 2.464,7.868 6.636,7.868 4.11599,0 6.636,-2.94 6.636,-7.756 0,-5.06799 -2.43601,-7.98 -6.664,-7.98 m 0.028,2.156 c 2.632,0 4.2,2.15601 4.2,5.796 0,3.444 -1.624,5.628 -4.2,5.628 -2.604,0 -4.2,-2.156 -4.2,-5.712 0,-3.52799 1.596,-5.712 4.2,-5.712"
         style="font-size:28px;text-align:center;text-anchor:middle"
         id="path3216" />
      <path
         d="m 780.0568,602.15415 c -4.116,0 -6.608,2.94001 -6.608,7.868 0,4.928 2.464,7.868 6.636,7.868 4.11599,0 6.636,-2.94 6.636,-7.756 0,-5.06799 -2.43601,-7.98 -6.664,-7.98 m 0.028,2.156 c 2.63199,0 4.2,2.15601 4.2,5.796 0,3.444 -1.62401,5.628 -4.2,5.628 -2.604,0 -4.2,-2.156 -4.2,-5.712 0,-3.52799 1.596,-5.712 4.2,-5.712"
         style="font-size:28px;text-align:center;text-anchor:middle"
         id="path3218" />
      <path
         d="m 791.97473,596.83415 -2.324,0 0,20.412 2.324,0 0,-5.712 2.268,-2.24 4.956,7.952 2.884,0 -5.992,-9.604 5.096,-5.068 -2.996,0 -6.216,6.216 0,-11.956"
         style="font-size:28px;text-align:center;text-anchor:middle"
         id="path3220" />
      <path
         d="m 815.52273,617.24615 0,-14.672 -2.324,0 0,8.316 c 0,2.996 -1.568,4.956 -4.004,4.956 -1.84799,0 -3.024,-1.12 -3.024,-2.884 l 0,-10.388 -2.324,0 0,11.312 c 0,2.436 1.82001,4.004 4.676,4.004 2.156,0 3.528,-0.756 4.9,-2.688 l 0,2.044 2.1,0"
         style="font-size:28px;text-align:center;text-anchor:middle"
         id="path3222" />
      <path
         d="m 819.12467,623.35015 2.352,0 0,-7.644 c 1.232,1.512 2.604,2.184 4.508,2.184 3.78,0 6.272,-3.052 6.272,-7.728 0,-4.92799 -2.408,-8.008 -6.3,-8.008 -1.988,0 -3.584,0.89601 -4.676,2.632 l 0,-2.212 -2.156,0 0,20.776 m 6.44,-19.012 c 2.576,0 4.256,2.26801 4.256,5.768 0,3.332 -1.708,5.6 -4.256,5.6 -2.464,0 -4.088,-2.24 -4.088,-5.684 0,-3.44399 1.624,-5.684 4.088,-5.684"
         style="font-size:28px;text-align:center;text-anchor:middle"
         id="path3224" />
      <path
         d="m 740.18655,643.59415 6.412,0 c 1.59599,0 2.856,-0.476 3.948,-1.456 1.23199,-1.11999 1.764,-2.436 1.764,-4.312 0,-3.83599 -2.26801,-5.992 -6.3,-5.992 l -8.428,0 0,20.412 2.604,0 0,-8.652 m 0,-2.296 0,-7.168 5.432,0 c 2.49199,0 3.976,1.34401 3.976,3.584 0,2.24 -1.48401,3.584 -3.976,3.584 l -5.432,0"
         style="font-size:28px;text-align:center;text-anchor:middle"
         id="path3226" />
      <path
         d="m 755.66967,637.57415 0,14.672 2.352,0 0,-7.616 c 0,-2.09999 0.532,-3.472 1.652,-4.284 0.728,-0.53199 1.428,-0.7 3.052,-0.728 l 0,-2.38 c -0.392,-0.056 -0.588,-0.084 -0.896,-0.084 -1.512,0 -2.66,0.89601 -4.004,3.08 l 0,-2.66 -2.156,0"
         style="font-size:28px;text-align:center;text-anchor:middle"
         id="path3228" />
      <path
         d="m 770.70523,637.15415 c -4.11599,0 -6.608,2.94001 -6.608,7.868 0,4.928 2.46401,7.868 6.636,7.868 4.116,0 6.636,-2.94 6.636,-7.756 0,-5.06799 -2.436,-7.98 -6.664,-7.98 m 0.028,2.156 c 2.632,0 4.2,2.15601 4.2,5.796 0,3.444 -1.624,5.628 -4.2,5.628 -2.60399,0 -4.2,-2.156 -4.2,-5.712 0,-3.52799 1.59601,-5.712 4.2,-5.712"
         style="font-size:28px;text-align:center;text-anchor:middle"
         id="path3230" />
      <path
         d="m 780.18717,631.83415 0,20.412 2.1,0 0,-1.876 c 1.12,1.708 2.604,2.52 4.648,2.52 3.864,0 6.384,-3.164 6.384,-8.036 0,-4.75999 -2.408,-7.7 -6.272,-7.7 -2.016,0 -3.444,0.75601 -4.536,2.408 l 0,-7.728 -2.324,0 m 6.412,7.504 c 2.604,0 4.284,2.26801 4.284,5.768 0,3.332 -1.736,5.6 -4.284,5.6 -2.464,0 -4.088,-2.24 -4.088,-5.684 0,-3.44399 1.624,-5.684 4.088,-5.684"
         style="font-size:28px;text-align:center;text-anchor:middle"
         id="path3232" />
      <path
         d="m 798.51711,631.83415 -2.352,0 0,20.412 2.352,0 0,-20.412"
         style="font-size:28px;text-align:center;text-anchor:middle"
         id="path3234" />
      <path
         d="m 814.85948,645.69415 c 0,-2.23999 -0.168,-3.584 -0.588,-4.676 -0.952,-2.40799 -3.192,-3.864 -5.936,-3.864 -4.08799,0 -6.72,3.13601 -6.72,7.952 0,4.816 2.54801,7.784 6.664,7.784 3.36,0 5.684,-1.904 6.272,-5.096 l -2.352,0 c -0.644,1.932 -1.96,2.94 -3.836,2.94 -1.484,0 -2.744,-0.672 -3.528,-1.904 -0.56,-0.83999 -0.756,-1.68 -0.784,-3.136 l 10.808,0 m -10.752,-1.904 c 0.196,-2.71599 1.84801,-4.48 4.2,-4.48 2.296,0 4.06,1.90401 4.06,4.312 0,0.056 0,0.112 -0.028,0.168 l -8.232,0"
         style="font-size:28px;text-align:center;text-anchor:middle"
         id="path3236" />
      <path
         d="m 818.04142,637.57415 0,14.672 2.352,0 0,-9.212 c 0,-2.12799 1.54,-3.836 3.444,-3.836 1.736,0 2.716,1.06401 2.716,2.94 l 0,10.108 2.352,0 0,-9.212 c 0,-2.12799 1.54,-3.836 3.444,-3.836 1.708,0 2.716,1.09201 2.716,2.94 l 0,10.108 2.352,0 0,-11.004 c 0,-2.63199 -1.512,-4.088 -4.256,-4.088 -1.96,0 -3.136,0.58801 -4.508,2.24 -0.868,-1.56799 -2.044,-2.24 -3.948,-2.24 -1.96,0 -3.248,0.72801 -4.508,2.492 l 0,-2.072 -2.156,0"
         style="font-size:28px;text-align:center;text-anchor:middle"
         id="path3238" />
    </g>
    <g
       style="font-size:12px;font-style:normal;font-variant:normal;font-weight:normal;font-stretch:normal;line-height:125%;letter-spacing:0px;word-spacing:0px;fill:#000000;fill-opacity:1;stroke:none;font-family:Nimbus Sans L;-inkscape-font-specification:Nimbus Sans L"
       id="text3755-7-3-6-0">
      <path
         d="m 74.127316,693.33018 c -0.811999,-4.47999 -3.388004,-6.664 -7.868,-6.664 -2.743997,0 -4.956001,0.86801 -6.468,2.548 -1.847998,2.016 -2.856,4.92801 -2.856,8.232 0,3.36 1.036002,6.24401 2.968,8.232 1.567999,1.624 3.584003,2.38 6.244,2.38 4.983995,0 7.784001,-2.688 8.4,-8.092 l -2.688,0 c -0.224,1.4 -0.504,2.35201 -0.924,3.164 -0.839999,1.68 -2.576002,2.632 -4.76,2.632 -4.059996,0 -6.636,-3.248 -6.636,-8.344 0,-5.23599 2.464004,-8.456 6.412,-8.456 1.651999,0 3.192001,0.50401 4.032,1.288 0.755999,0.7 1.176001,1.56801 1.484,3.08 l 2.66,0"
         style="font-size:28px;text-align:center;text-anchor:middle"
         id="path3162" />
      <path
         d="m 83.441691,692.32218 c -4.115996,0 -6.608,2.94001 -6.608,7.868 0,4.928 2.464004,7.868 6.636,7.868 4.115996,0 6.636,-2.94 6.636,-7.756 0,-5.06799 -2.436004,-7.98 -6.664,-7.98 m 0.028,2.156 c 2.631998,0 4.2,2.15601 4.2,5.796 0,3.444 -1.624002,5.628 -4.2,5.628 -2.603997,0 -4.2,-2.156 -4.2,-5.712 0,-3.52799 1.596003,-5.712 4.2,-5.712"
         style="font-size:28px;text-align:center;text-anchor:middle"
         id="path3164" />
      <path
         d="m 93.371629,692.74218 0,14.672 2.352,0 0,-9.212 c 0,-2.12799 1.540002,-3.836 3.444,-3.836 1.736001,0 2.716001,1.06401 2.716001,2.94 l 0,10.108 2.352,0 0,-9.212 c 0,-2.12799 1.54,-3.836 3.444,-3.836 1.708,0 2.716,1.09201 2.716,2.94 l 0,10.108 2.352,0 0,-11.004 c 0,-2.63199 -1.512,-4.088 -4.256,-4.088 -1.96,0 -3.136,0.58801 -4.508,2.24 -0.868,-1.56799 -2.044,-2.24 -3.948,-2.24 -1.959999,0 -3.248003,0.72801 -4.508001,2.492 l 0,-2.072 -2.156,0"
         style="font-size:28px;text-align:center;text-anchor:middle"
         id="path3166" />
      <path
         d="m 116.27519,713.51818 2.352,0 0,-7.644 c 1.232,1.512 2.604,2.184 4.508,2.184 3.78,0 6.272,-3.052 6.272,-7.728 0,-4.92799 -2.408,-8.008 -6.3,-8.008 -1.988,0 -3.584,0.89601 -4.676,2.632 l 0,-2.212 -2.156,0 0,20.776 m 6.44,-19.012 c 2.576,0 4.256,2.26801 4.256,5.768 0,3.332 -1.708,5.6 -4.256,5.6 -2.464,0 -4.088,-2.24 -4.088,-5.684 0,-3.44399 1.624,-5.684 4.088,-5.684"
         style="font-size:28px;text-align:center;text-anchor:middle"
         id="path3168" />
      <path
         d="m 143.84513,707.41418 0,-14.672 -2.324,0 0,8.316 c 0,2.996 -1.568,4.956 -4.004,4.956 -1.848,0 -3.024,-1.12 -3.024,-2.884 l 0,-10.388 -2.324,0 0,11.312 c 0,2.436 1.82,4.004 4.676,4.004 2.156,0 3.528,-0.756 4.9,-2.688 l 0,2.044 2.1,0"
         style="font-size:28px;text-align:center;text-anchor:middle"
         id="path3170" />
      <path
         d="m 153.04707,692.74218 -2.408,0 0,-4.032 -2.324,0 0,4.032 -1.988,0 0,1.904 1.988,0 0,11.088 c 0,1.484 1.008,2.324 2.828,2.324 0.56,0 1.12,-0.056 1.904,-0.196 l 0,-1.96 c -0.308,0.084 -0.672,0.112 -1.12,0.112 -1.008,0 -1.288,-0.28 -1.288,-1.316 l 0,-10.052 2.408,0 0,-1.904"
         style="font-size:28px;text-align:center;text-anchor:middle"
         id="path3172" />
      <path
         d="m 168.06469,700.86218 c 0,-2.23999 -0.168,-3.584 -0.588,-4.676 -0.952,-2.40799 -3.192,-3.864 -5.936,-3.864 -4.08799,0 -6.72,3.13601 -6.72,7.952 0,4.816 2.54801,7.784 6.664,7.784 3.36,0 5.684,-1.904 6.272,-5.096 l -2.352,0 c -0.644,1.932 -1.96,2.94 -3.836,2.94 -1.484,0 -2.744,-0.672 -3.528,-1.904 -0.56,-0.83999 -0.756,-1.68 -0.784,-3.136 l 10.808,0 m -10.752,-1.904 c 0.196,-2.71599 1.848,-4.48 4.2,-4.48 2.296,0 4.06,1.90401 4.06,4.312 0,0.056 0,0.112 -0.028,0.168 l -8.232,0"
         style="font-size:28px;text-align:center;text-anchor:middle"
         id="path3174" />
      <path
         d="m 78.980504,736.28218 2.1,6.132 2.912,0 -7.168,-20.412 -3.36,0 -7.28,20.412 2.772,0 2.156,-6.132 7.868,0 m -0.728,-2.184 -6.496,0 3.36,-9.296 3.136,9.296"
         style="font-size:28px;text-align:center;text-anchor:middle"
         id="path3176" />
      <path
         d="m 86.371629,727.74218 0,14.672 2.352,0 0,-8.092 c 0,-2.99599 1.568002,-4.956 3.976,-4.956 1.847998,0 3.024,1.12001 3.024,2.884 l 0,10.164 2.324,0 0,-11.088 c 0,-2.43599 -1.820003,-4.004 -4.648,-4.004 -2.183998,0 -3.584002,0.84001 -4.872,2.884 l 0,-2.464 -2.156,0"
         style="font-size:28px;text-align:center;text-anchor:middle"
         id="path3178" />
      <path
         d="m 112.26157,731.83018 c -0.028,-2.88399 -1.93201,-4.508 -5.32,-4.508 -3.416,0 -5.628,1.76401 -5.628,4.48 0,2.296 1.176,3.38801 4.648,4.228 l 2.184,0.532 c 1.62399,0.392 2.268,0.98001 2.268,2.044 0,1.372 -1.37201,2.296 -3.416,2.296 -1.26,0 -2.324,-0.364 -2.912,-0.98 -0.364,-0.42 -0.532,-0.84 -0.672,-1.876 l -2.464,0 c 0.112,3.388 2.016,5.012 5.852,5.012 3.69599,0 6.048,-1.82 6.048,-4.648 0,-2.18399 -1.23201,-3.388 -4.144,-4.088 l -2.24,-0.532 c -1.904,-0.44799 -2.716,-1.064 -2.716,-2.1 0,-1.34399 1.204,-2.212 3.108,-2.212 1.87599,0 2.884,0.81201 2.94,2.352 l 2.464,0"
         style="font-size:28px;text-align:center;text-anchor:middle"
         id="path3180" />
      <path
         d="m 129.50957,742.41418 4.312,-14.672 -2.632,0 -2.912,11.424 -2.884,-11.424 -2.856,0 -2.8,11.424 -2.996,-11.424 -2.576,0 4.256,14.672 2.632,0 2.828,-11.508 2.968,11.508 2.66,0"
         style="font-size:28px;text-align:center;text-anchor:middle"
         id="path3182" />
      <path
         d="m 148.59594,735.86218 c 0,-2.23999 -0.168,-3.584 -0.588,-4.676 -0.952,-2.40799 -3.192,-3.864 -5.936,-3.864 -4.08799,0 -6.72,3.13601 -6.72,7.952 0,4.816 2.54801,7.784 6.664,7.784 3.36,0 5.684,-1.904 6.272,-5.096 l -2.352,0 c -0.644,1.932 -1.96,2.94 -3.836,2.94 -1.484,0 -2.744,-0.672 -3.528,-1.904 -0.56,-0.83999 -0.756,-1.68 -0.784,-3.136 l 10.808,0 m -10.752,-1.904 c 0.196,-2.71599 1.848,-4.48 4.2,-4.48 2.296,0 4.06,1.90401 4.06,4.312 0,0.056 0,0.112 -0.028,0.168 l -8.232,0"
         style="font-size:28px;text-align:center;text-anchor:middle"
         id="path3184" />
      <path
         d="m 151.74988,727.74218 0,14.672 2.352,0 0,-7.616 c 0,-2.09999 0.532,-3.472 1.652,-4.284 0.728,-0.53199 1.428,-0.7 3.052,-0.728 l 0,-2.38 c -0.392,-0.056 -0.588,-0.084 -0.896,-0.084 -1.512,0 -2.66,0.89601 -4.004,3.08 l 0,-2.66 -2.156,0"
         style="font-size:28px;text-align:center;text-anchor:middle"
         id="path3186" />
    </g>
    <g
       style="font-size:12px;font-style:normal;font-variant:normal;font-weight:normal;font-stretch:normal;line-height:125%;letter-spacing:0px;word-spacing:0px;fill:#000000;fill-opacity:1;stroke:none;font-family:Nimbus Sans L;-inkscape-font-specification:Nimbus Sans L"
       id="text3755-7-3-6-6">
      <path
         d="m 757.83534,801.4042 -8.512,0 0,2.296 6.216,0 0,0.56 c 0,3.64 -2.68801,6.272 -6.412,6.272 -2.072,0 -3.948,-0.756 -5.152,-2.072 -1.344,-1.45599 -2.156,-3.892 -2.156,-6.412 0,-5.01199 2.856,-8.316 7.168,-8.316 3.10799,0 5.348,1.59601 5.908,4.228 l 2.66,0 c -0.728,-4.14399 -3.86401,-6.524 -8.54,-6.524 -2.492,0 -4.508,0.64401 -6.104,1.96 -2.352,1.96 -3.696,5.12401 -3.696,8.792 0,6.272 3.836,10.64 9.352,10.64 2.77199,0 4.984,-1.036 6.972,-3.248 l 0.644,2.716 1.652,0 0,-10.892"
         style="font-size:28px;text-align:center;text-anchor:middle"
         id="path3116" />
      <path
         d="m 761.68096,797.5122 0,14.672 2.352,0 0,-7.616 c 0,-2.09999 0.532,-3.472 1.652,-4.284 0.728,-0.532 1.428,-0.7 3.052,-0.728 l 0,-2.38 c -0.392,-0.056 -0.588,-0.084 -0.896,-0.084 -1.512,0 -2.66,0.89601 -4.004,3.08 l 0,-2.66 -2.156,0"
         style="font-size:28px;text-align:center;text-anchor:middle"
         id="path3118" />
      <path
         d="m 784.08052,810.8122 c -0.25199,0.056 -0.364,0.056 -0.504,0.056 -0.81199,0 -1.26,-0.42 -1.26,-1.148 l 0,-8.624 c 0,-2.60399 -1.904,-4.004 -5.516,-4.004 -2.12799,0 -3.892,0.61601 -4.872,1.708 -0.67199,0.756 -0.952,1.59601 -1.008,3.052 l 2.352,0 c 0.196,-1.79199 1.26001,-2.604 3.444,-2.604 2.1,0 3.276,0.78401 3.276,2.184 l 0,0.616 c 0,0.98 -0.588,1.4 -2.436,1.624 -3.30399,0.42 -3.808,0.532 -4.704,0.896 -1.70799,0.7 -2.576,2.01601 -2.576,3.92 0,2.66 1.84801,4.34 4.816,4.34 1.848,0 3.33201,-0.644 4.984,-2.156 0.168,1.484 0.89601,2.156 2.408,2.156 0.476,0 0.84001,-0.056 1.596,-0.252 l 0,-1.764 m -4.088,-3.248 c 0,0.784 -0.224,1.26 -0.924,1.904 -0.95199,0.868 -2.1,1.316 -3.472,1.316 -1.81999,0 -2.884,-0.868 -2.884,-2.352 0,-1.53999 1.03601,-2.324 3.528,-2.688 2.464,-0.336 2.96801,-0.448 3.752,-0.812 l 0,2.632"
         style="font-size:28px;text-align:center;text-anchor:middle"
         id="path3120" />
      <path
         d="m 798.54646,791.7722 -2.324,0 0,7.588 c -0.98,-1.48399 -2.548,-2.268 -4.508,-2.268 -3.80799,0 -6.3,3.05201 -6.3,7.728 0,4.956 2.43601,8.008 6.384,8.008 2.016,0 3.416,-0.756 4.676,-2.576 l 0,1.932 2.072,0 0,-20.412 m -6.44,7.504 c 2.52,0 4.116,2.24001 4.116,5.74 0,3.388 -1.624,5.628 -4.088,5.628 -2.576,0 -4.284,-2.268 -4.284,-5.684 0,-3.41599 1.708,-5.684 4.256,-5.684"
         style="font-size:28px;text-align:center;text-anchor:middle"
         id="path3122" />
      <path
         d="m 804.4724,797.5122 -2.324,0 0,14.672 2.324,0 0,-14.672 m 0,-5.74 -2.352,0 0,2.94 2.352,0 0,-2.94"
         style="font-size:28px;text-align:center;text-anchor:middle"
         id="path3124" />
      <path
         d="m 808.46677,797.5122 0,14.672 2.352,0 0,-8.092 c 0,-2.99599 1.56801,-4.956 3.976,-4.956 1.848,0 3.024,1.12001 3.024,2.884 l 0,10.164 2.324,0 0,-11.088 c 0,-2.43599 -1.82,-4.004 -4.648,-4.004 -2.18399,0 -3.584,0.84001 -4.872,2.884 l 0,-2.464 -2.156,0"
         style="font-size:28px;text-align:center;text-anchor:middle"
         id="path3126" />
      <path
         d="m 833.62871,797.5122 0,2.128 c -1.176,-1.73599 -2.604,-2.548 -4.48,-2.548 -3.72399,0 -6.244,3.24801 -6.244,8.008 0,2.408 0.644,4.36801 1.848,5.768 1.092,1.232 2.66,1.96 4.2,1.96 1.848,0 3.136,-0.784 4.452,-2.632 l 0,0.756 c 0,1.988 -0.252,3.192 -0.84,4.004 -0.616,0.868 -1.82,1.372 -3.248,1.372 -1.064,0 -2.016,-0.28 -2.66,-0.784 -0.532,-0.42 -0.756,-0.812 -0.896,-1.68 l -2.38,0 c 0.252,2.772 2.40801,4.424 5.852,4.424 2.184,0 4.06,-0.7 5.012,-1.876 1.12,-1.34399 1.54,-3.192 1.54,-6.636 l 0,-12.264 -2.156,0 m -4.228,1.736 c 2.52,0 4.004,2.12801 4.004,5.796 0,3.5 -1.512,5.628 -3.976,5.628 -2.548,0 -4.088,-2.156 -4.088,-5.712 0,-3.52799 1.568,-5.712 4.06,-5.712"
         style="font-size:28px;text-align:center;text-anchor:middle"
         id="path3128" />
    </g>
    <g
       style="font-size:12px;font-style:normal;font-variant:normal;font-weight:normal;font-stretch:normal;line-height:125%;letter-spacing:0px;word-spacing:0px;fill:#000000;fill-opacity:1;stroke:none;font-family:Nimbus Sans L;-inkscape-font-specification:Nimbus Sans L"
       id="text3755-7-3-6-7">
      <path
         d="m 68.116496,857.01617 7.868,0 c 5.151995,0 8.316,-3.864 8.316,-10.22 0,-6.32799 -3.136005,-10.192 -8.316,-10.192 l -7.868,0 0,20.412 m 2.604,-2.296 0,-15.82 4.816,0 c 4.031996,0 6.16,2.71601 6.16,7.924 0,5.152 -2.128004,7.896 -6.16,7.896 l -4.816,0"
         style="font-size:28px;text-align:center;text-anchor:middle"
         id="path3090" />
      <path
         d="m 90.058871,842.34417 -2.324,0 0,14.672 2.324,0 0,-14.672 m 0,-5.74 -2.352,0 0,2.94 2.352,0 0,-2.94"
         style="font-size:28px;text-align:center;text-anchor:middle"
         id="path3092" />
      <path
         d="m 104.35725,846.43217 c -0.028,-2.88399 -1.93201,-4.508 -5.320004,-4.508 -3.415996,0 -5.628,1.76401 -5.628,4.48 0,2.296 1.176004,3.38801 4.648,4.228 l 2.184004,0.532 c 1.62399,0.392 2.268,0.98001 2.268,2.044 0,1.372 -1.37201,2.296 -3.416004,2.296 -1.259998,0 -2.324,-0.364 -2.912,-0.98 -0.363999,-0.42 -0.532,-0.84 -0.672,-1.876 l -2.464,0 c 0.112,3.388 2.016004,5.012 5.852,5.012 3.695994,0 6.048004,-1.82 6.048004,-4.648 0,-2.18399 -1.23201,-3.388 -4.144,-4.088 l -2.240004,-0.532 c -1.903998,-0.448 -2.716,-1.064 -2.716,-2.1 0,-1.34399 1.204002,-2.212 3.108,-2.212 1.875994,0 2.884004,0.81201 2.940004,2.352 l 2.464,0"
         style="font-size:28px;text-align:center;text-anchor:middle"
         id="path3094" />
      <path
         d="m 107.60525,863.12017 2.352,0 0,-7.644 c 1.232,1.512 2.604,2.184 4.508,2.184 3.77999,0 6.272,-3.052 6.272,-7.728 0,-4.92799 -2.40801,-8.008 -6.3,-8.008 -1.988,0 -3.584,0.89601 -4.676,2.632 l 0,-2.212 -2.156,0 0,20.776 m 6.44,-19.012 c 2.57599,0 4.256,2.26801 4.256,5.768 0,3.332 -1.70801,5.6 -4.256,5.6 -2.464,0 -4.088,-2.24 -4.088,-5.684 0,-3.44399 1.624,-5.684 4.088,-5.684"
         style="font-size:28px;text-align:center;text-anchor:middle"
         id="path3096" />
      <path
         d="m 125.93518,836.60417 -2.352,0 0,20.412 2.352,0 0,-20.412"
         style="font-size:28px;text-align:center;text-anchor:middle"
         id="path3098" />
      <path
         d="m 142.89356,855.64417 c -0.252,0.056 -0.364,0.056 -0.504,0.056 -0.812,0 -1.26,-0.42 -1.26,-1.148 l 0,-8.624 c 0,-2.60399 -1.904,-4.004 -5.516,-4.004 -2.128,0 -3.892,0.61601 -4.872,1.708 -0.672,0.756 -0.952,1.59601 -1.008,3.052 l 2.352,0 c 0.196,-1.79199 1.26,-2.604 3.444,-2.604 2.1,0 3.276,0.78401 3.276,2.184 l 0,0.616 c 0,0.98 -0.588,1.4 -2.436,1.624 -3.304,0.42 -3.808,0.532 -4.704,0.896 -1.708,0.7 -2.576,2.01601 -2.576,3.92 0,2.66 1.848,4.34 4.816,4.34 1.848,0 3.332,-0.644 4.984,-2.156 0.168,1.484 0.896,2.156 2.408,2.156 0.476,0 0.84,-0.056 1.596,-0.252 l 0,-1.764 m -4.088,-3.248 c 0,0.784 -0.224,1.26 -0.924,1.904 -0.952,0.868 -2.1,1.316 -3.472,1.316 -1.82,0 -2.884,-0.868 -2.884,-2.352 0,-1.53999 1.036,-2.324 3.528,-2.688 2.464,-0.336 2.968,-0.448 3.752,-0.812 l 0,2.632"
         style="font-size:28px;text-align:center;text-anchor:middle"
         id="path3100" />
      <path
         d="m 154.3635,842.34417 -4.06,11.424 -3.752,-11.424 -2.492,0 4.956,14.728 -0.896,2.324 c -0.364,1.036 -0.896,1.428 -1.876,1.428 -0.336,0 -0.728,-0.056 -1.232,-0.168 l 0,2.1 c 0.476,0.252 0.952,0.364 1.568,0.364 0.756,0 1.568,-0.252 2.184,-0.7 0.728,-0.532 1.148,-1.148 1.596,-2.324 l 6.524,-17.752 -2.52,0"
         style="font-size:28px;text-align:center;text-anchor:middle"
         id="path3102" />
    </g>
    <g
       style="font-size:12px;font-style:normal;font-variant:normal;font-weight:normal;font-stretch:normal;line-height:125%;letter-spacing:0px;word-spacing:0px;fill:#000000;fill-opacity:1;stroke:none;font-family:Nimbus Sans L;-inkscape-font-specification:Nimbus Sans L"
       id="text3755-7-3-6-23">
      <path
         d="m 770.63087,890.49418 c -0.028,-4.00399 -2.772,-6.328 -7.476,-6.328 -4.47999,0 -7.252,2.29601 -7.252,5.992 0,2.492 1.316,4.06001 4.004,4.76 l 5.068,1.344 c 2.576,0.672 3.752,1.70801 3.752,3.304 0,1.092 -0.588,2.21201 -1.456,2.828 -0.812,0.56 -2.1,0.868 -3.752,0.868 -2.212,0 -3.724,-0.532 -4.704,-1.708 -0.756,-0.89599 -1.092,-1.876 -1.064,-3.136 l -2.464,0 c 0.028,1.876 0.392,3.10801 1.204,4.228 1.4,1.904 3.752,2.912 6.86,2.912 2.436,0 4.424,-0.56 5.74,-1.568 1.372,-1.09199 2.24,-2.912 2.24,-4.676 0,-2.51999 -1.568,-4.368 -4.34,-5.124 l -5.124,-1.372 c -2.464,-0.67199 -3.36,-1.456 -3.36,-3.024 0,-2.07199 1.82,-3.444 4.564,-3.444 3.248,0 5.068,1.48401 5.096,4.144 l 2.464,0"
         style="font-size:28px;text-align:center;text-anchor:middle"
         id="path3079" />
      <path
         d="m 779.758,890.24218 -2.408,0 0,-4.032 -2.324,0 0,4.032 -1.988,0 0,1.904 1.988,0 0,11.088 c 0,1.484 1.008,2.324 2.828,2.324 0.56,0 1.12,-0.056 1.904,-0.196 l 0,-1.96 c -0.308,0.084 -0.672,0.112 -1.12,0.112 -1.008,0 -1.288,-0.28 -1.288,-1.316 l 0,-10.052 2.408,0 0,-1.904"
         style="font-size:28px;text-align:center;text-anchor:middle"
         id="path3081" />
      <path
         d="m 788.02762,889.82218 c -4.11599,0 -6.608,2.94001 -6.608,7.868 0,4.928 2.46401,7.868 6.636,7.868 4.116,0 6.636,-2.94 6.636,-7.756 0,-5.06799 -2.436,-7.98 -6.664,-7.98 m 0.028,2.156 c 2.632,0 4.2,2.15601 4.2,5.796 0,3.444 -1.624,5.628 -4.2,5.628 -2.604,0 -4.2,-2.156 -4.2,-5.712 0,-3.52799 1.596,-5.712 4.2,-5.712"
         style="font-size:28px;text-align:center;text-anchor:middle"
         id="path3083" />
      <path
         d="m 797.92956,890.24218 0,14.672 2.352,0 0,-7.616 c 0,-2.09999 0.532,-3.472 1.652,-4.284 0.728,-0.53199 1.428,-0.7 3.052,-0.728 l 0,-2.38 c -0.392,-0.056 -0.588,-0.084 -0.896,-0.084 -1.512,0 -2.66,0.89601 -4.004,3.08 l 0,-2.66 -2.156,0"
         style="font-size:28px;text-align:center;text-anchor:middle"
         id="path3085" />
      <path
         d="m 819.71312,898.36218 c 0,-2.23999 -0.168,-3.584 -0.588,-4.676 -0.952,-2.40799 -3.192,-3.864 -5.936,-3.864 -4.08799,0 -6.72,3.13601 -6.72,7.952 0,4.816 2.54801,7.784 6.664,7.784 3.36,0 5.684,-1.904 6.272,-5.096 l -2.352,0 c -0.644,1.932 -1.96,2.94 -3.836,2.94 -1.484,0 -2.744,-0.672 -3.528,-1.904 -0.56,-0.83999 -0.756,-1.68 -0.784,-3.136 l 10.808,0 m -10.752,-1.904 c 0.196,-2.71599 1.848,-4.48 4.2,-4.48 2.296,0 4.06,1.90401 4.06,4.312 0,0.056 0,0.112 -0.028,0.168 l -8.232,0"
         style="font-size:28px;text-align:center;text-anchor:middle"
         id="path3087" />
    </g>
    <flowRoot
       xml:space="preserve"
       id="flowRoot5568"
       style="fill:black;stroke:none;stroke-opacity:1;stroke-width:1px;stroke-linejoin:miter;stroke-linecap:butt;fill-opacity:1;font-family:Nimbus Sans L;font-style:normal;font-weight:normal;font-size:12px;line-height:125%;letter-spacing:0px;word-spacing:0px;-inkscape-font-specification:Nimbus Sans L;font-stretch:normal;font-variant:normal"><flowRegion
         id="flowRegion5570"><rect
           id="rect5572"
           width="169.28572"
           height="107.14286"
           x="25"
           y="387.85715" /></flowRegion><flowPara
         id="flowPara5574" /></flowRoot>    <g
       style="font-size:28px;font-style:italic;font-variant:normal;font-weight:normal;font-stretch:normal;text-align:center;line-height:125%;letter-spacing:0px;word-spacing:0px;text-anchor:middle;fill:#000000;fill-opacity:1;stroke:none;font-family:Nimbus Sans L;-inkscape-font-specification:Nimbus Sans L Italic"
       id="text5576">
      <path
         d="m 583.33977,470.93418 6.384,0 c 1.764,0 3.08,-0.448 4.34,-1.456 1.764,-1.4 2.772,-3.528 2.772,-5.796 0,-2.968 -1.76401,-4.508 -5.18,-4.508 l -8.456,0 -4.34,20.412 2.632,0 1.848,-8.652 m 0.476,-2.296 1.54,-7.168 5.432,0 c 2.184,0 3.36,0.952 3.36,2.716 0,0.98 -0.336,1.904 -0.98,2.744 -0.924,1.176 -2.128,1.708 -3.92,1.708 l -5.432,0"
         style=""
         id="path3298" />
      <path
         d="m 600.05489,464.91418 -3.108,14.672 2.352,0 1.624,-7.616 c 0.728,-3.41599 2.71601,-5.124 5.796,-5.012 l 0.504,-2.38 c -0.364,-0.056 -0.588,-0.084 -0.896,-0.084 -1.624,0 -2.884,0.728 -4.62,2.716 l 0.476,-2.296 -2.128,0"
         style=""
         id="path3300" />
      <path
         d="m 615.11846,464.49418 c -2.604,0 -4.90001,1.176 -6.328,3.248 -1.26,1.792 -2.184,4.872 -2.184,7.252 0,3.108 2.156,5.236 5.292,5.236 2.68799,0 4.816,-1.092 6.384,-3.248 1.28799,-1.764 2.212,-4.816 2.212,-7.252 0,-1.484 -0.56001,-2.912 -1.54,-3.864 -0.952,-0.924 -2.21201,-1.372 -3.836,-1.372 m -0.364,2.156 c 2.07199,0 3.276,1.344 3.276,3.612 0,1.652 -0.47601,3.472 -1.232,4.872 -1.064,1.932 -2.57601,2.94 -4.508,2.94 -1.988,0 -3.22,-1.4 -3.22,-3.64 0,-1.596 0.476,-3.444 1.232,-4.844 1.03599,-1.904 2.604,-2.94 4.452,-2.94"
         style=""
         id="path3302" />
      <path
         d="m 625.80439,459.17418 -4.34,20.412 2.1,0 0.476,-2.184 c 0.364,0.868 0.616,1.26 1.036,1.68 0.728,0.728 1.876,1.148 3.108,1.148 1.876,0 3.864,-0.868 5.124,-2.184 1.876,-1.988 3.108,-5.18 3.108,-8.064 0,-3.136 -2.128,-5.488 -4.956,-5.488 -1.12,0 -2.38,0.336 -3.22,0.84 -0.476,0.308 -0.84,0.616 -1.708,1.54 l 1.624,-7.7 -2.352,0 m 4.872,7.476 c 2.044,0 3.276,1.456 3.276,3.864 0,1.596 -0.476,3.388 -1.288,4.732 -1.148,1.904 -2.604,2.828 -4.424,2.828 -1.904,0 -3.108,-1.4 -3.108,-3.612 0,-1.736 0.504,-3.64 1.288,-4.984 1.092,-1.848 2.576,-2.828 4.256,-2.828"
         style=""
         id="path3304" />
      <path
         d="m 644.13433,459.17418 -2.352,0 -4.34,20.412 2.352,0 4.34,-20.412"
         style=""
         id="path3306" />
      <path
         d="m 657.53671,473.03418 0.084,-0.476 c 0.25199,-1.344 0.392,-2.52 0.392,-3.276 0,-2.688 -2.32401,-4.788 -5.348,-4.788 -2.436,0 -4.78801,1.148 -6.188,3.024 -1.316,1.764 -2.352,4.956 -2.352,7.224 0,1.512 0.644,3.052 1.736,4.088 0.97999,0.952 2.212,1.4 3.808,1.4 3.35999,0 6.244,-2.072 7.112,-5.096 l -2.352,0 c -1.008,1.932 -2.49201,2.94 -4.368,2.94 -2.212,0 -3.472,-1.372 -3.472,-3.752 0,-0.588 0.028,-0.868 0.14,-1.288 l 10.808,0 m -10.304,-2.016 c 0.72799,-2.576 2.8,-4.368 5.068,-4.368 1.98799,0 3.248,1.344 3.248,3.444 0,0.28 -0.028,0.476 -0.084,0.924 l -8.232,0"
         style=""
         id="path3308" />
      <path
         d="m 662.45464,464.91418 -3.108,14.672 2.352,0 1.96,-9.212 c 0.448,-2.128 2.352,-3.864 4.228,-3.864 1.372,0 2.296,0.784 2.296,1.932 0,0.308 -0.028,0.672 -0.112,1.036 l -2.156,10.108 2.352,0 1.96,-9.212 c 0.448,-2.184 2.38,-3.864 4.396,-3.864 1.316,0 2.128,0.812 2.128,2.156 0,0.42 0,0.42 -0.252,1.372 l -2.016,9.548 2.352,0 2.212,-10.444 c 0.084,-0.308 0.168,-1.232 0.168,-1.54 0,-0.728 -0.336,-1.512 -0.896,-2.156 -0.616,-0.672 -1.372,-0.952 -2.66,-0.952 -1.82,0 -3.416,0.728 -5.068,2.324 -0.448,-1.568 -1.54,-2.324 -3.388,-2.324 -1.904,0 -3.192,0.56 -4.984,2.24 l 0.364,-1.82 -2.128,0"
         style=""
         id="path3310" />
      <path
         d="m 560.92096,514.58618 7.896,0 c 3.02399,0 5.572,-1.26 7.616,-3.752 1.90399,-2.324 3.248,-6.412 3.248,-9.912 0,-2.044 -0.84001,-4.116 -2.156,-5.292 -1.064,-0.952 -2.54801,-1.456 -4.368,-1.456 l -7.896,0 -4.34,20.412 m 3.108,-2.296 3.388,-15.82 4.788,0 c 2.99599,0 4.788,1.764 4.788,4.676 0,2.576 -0.89601,5.936 -2.016,7.7 -1.456,2.24 -3.58401,3.444 -6.132,3.444 l -4.816,0"
         style=""
         id="path3312" />
      <path
         d="m 594.42733,508.03418 0.084,-0.476 c 0.252,-1.344 0.392,-2.52 0.392,-3.276 0,-2.688 -2.324,-4.788 -5.348,-4.788 -2.436,0 -4.788,1.148 -6.188,3.024 -1.316,1.764 -2.352,4.956 -2.352,7.224 0,1.512 0.644,3.052 1.736,4.088 0.98,0.952 2.212,1.4 3.808,1.4 3.36,0 6.244,-2.072 7.112,-5.096 l -2.352,0 c -1.008,1.932 -2.492,2.94 -4.368,2.94 -2.212,0 -3.472,-1.372 -3.472,-3.752 0,-0.588 0.028,-0.868 0.14,-1.288 l 10.808,0 m -10.304,-2.016 c 0.728,-2.576 2.8,-4.368 5.068,-4.368 1.988,0 3.248,1.344 3.248,3.444 0,0.28 -0.028,0.476 -0.084,0.924 l -8.232,0"
         style=""
         id="path3314" />
      <path
         d="m 608.64127,504.00218 c 0.14,-0.588 0.168,-0.84 0.168,-1.204 0,-1.96 -1.87601,-3.304 -4.592,-3.304 -1.988,0 -3.696,0.588 -4.844,1.68 -1.008,0.98 -1.68,2.436 -1.68,3.752 0,1.708 0.98,2.52 3.864,3.276 l 2.072,0.532 c 0.924,0.252 1.344,0.42 1.596,0.728 0.196,0.252 0.364,0.672 0.364,0.924 0,0.504 -0.448,1.372 -0.896,1.736 -0.7,0.588 -1.904,0.952 -3.108,0.952 -1.932,0 -3.024,-0.756 -3.024,-2.156 0,-0.168 0.028,-0.42 0.056,-0.7 l -2.492,0 c -0.14,0.644 -0.168,0.98 -0.168,1.428 0,2.24 1.96,3.584 5.208,3.584 4.17199,0 6.888,-2.156 6.888,-5.488 0,-1.708 -0.924,-2.604 -3.388,-3.22 l -2.128,-0.532 c -1.568,-0.392 -2.38,-0.952 -2.38,-1.68 0,-0.56 0.336,-1.26 0.84,-1.736 0.672,-0.644 1.512,-0.924 2.744,-0.924 1.652,0 2.576,0.644 2.576,1.736 0,0.196 0,0.392 -0.028,0.616 l 2.352,0"
         style=""
         id="path3316" />
      <path
         d="m 623.67727,504.84218 0.028,-0.42 c 0.028,-0.42 0.056,-0.728 0.056,-0.812 0,-0.924 -0.504,-2.044 -1.232,-2.8 -0.868,-0.896 -2.016,-1.316 -3.612,-1.316 -2.52,0 -4.788,1.064 -6.272,2.996 -1.316,1.708 -2.268,4.76 -2.268,7.336 0,1.316 0.448,2.688 1.232,3.668 0.952,1.204 2.212,1.736 4.004,1.736 2.296,0 4.228,-0.812 5.516,-2.324 0.728,-0.84 1.176,-1.792 1.624,-3.36 l -2.352,0 c -0.84,2.296 -2.38,3.528 -4.396,3.528 -1.932,0 -3.164,-1.372 -3.164,-3.556 0,-1.792 0.588,-3.92 1.512,-5.376 1.036,-1.652 2.436,-2.492 4.144,-2.492 1.764,0 2.856,0.98 2.856,2.576 0,0.168 0,0.364 -0.028,0.616 l 2.352,0"
         style=""
         id="path3318" />
      <path
         d="m 627.28927,499.91418 -3.108,14.672 2.352,0 1.624,-7.616 c 0.728,-3.41599 2.716,-5.124 5.796,-5.012 l 0.504,-2.38 c -0.364,-0.056 -0.588,-0.084 -0.896,-0.084 -1.624,0 -2.884,0.728 -4.62,2.716 l 0.476,-2.296 -2.128,0"
         style=""
         id="path3320" />
      <path
         d="m 638.90883,499.91418 -2.352,0 -3.108,14.672 2.352,0 3.108,-14.672 m 1.232,-5.74 -2.352,0 -0.616,2.884 2.352,0 0.616,-2.884"
         style=""
         id="path3322" />
      <path
         d="m 638.03121,520.55018 2.352,0 1.68,-7.868 c 0.86799,1.82 2.016,2.548 4.004,2.548 2.18399,0 4.284,-1.008 5.712,-2.772 1.51199,-1.848 2.464,-4.76 2.464,-7.504 0,-3.35999 -1.87601,-5.46 -4.872,-5.46 -1.232,0 -2.46401,0.364 -3.584,1.092 -0.896,0.56 -1.23201,0.924 -1.596,1.68 l 0.504,-2.352 -2.268,0 -4.396,20.636 m 10.416,-18.9 c 2.09999,0 3.332,1.456 3.332,3.864 0,1.512 -0.47601,3.332 -1.232,4.732 -1.036,1.904 -2.43601,2.828 -4.256,2.828 -2.044,0 -3.332,-1.4 -3.332,-3.64 0,-1.68 0.476,-3.5 1.316,-4.956 1.03599,-1.876 2.436,-2.828 4.172,-2.828"
         style=""
         id="path3324" />
      <path
         d="m 663.66914,499.91418 -2.492,0 0.868,-4.032 -2.352,0 -0.868,4.032 -1.988,0 -0.392,1.876 1.988,0 -2.212,10.36 c -0.056,0.28 -0.084,0.588 -0.084,0.868 0,1.372 0.952,2.212 2.492,2.212 0.56,0 1.428,-0.084 1.82,-0.196 l 0.448,-2.044 c -0.868,0.196 -1.008,0.224 -1.344,0.224 -0.616,0 -1.008,-0.308 -1.008,-0.756 0,-0.084 0.028,-0.224 0.056,-0.392 l 2.184,-10.276 2.492,0 0.392,-1.876"
         style=""
         id="path3326" />
      <path
         d="m 668.49477,499.91418 -2.352,0 -3.108,14.672 2.352,0 3.108,-14.672 m 1.232,-5.74 -2.352,0 -0.616,2.884 2.352,0 0.616,-2.884"
         style=""
         id="path3328" />
      <path
         d="m 678.17314,499.49418 c -2.60399,0 -4.9,1.176 -6.328,3.248 -1.26,1.792 -2.184,4.872 -2.184,7.252 0,3.108 2.15601,5.236 5.292,5.236 2.688,0 4.816,-1.092 6.384,-3.248 1.288,-1.764 2.212,-4.816 2.212,-7.252 0,-1.484 -0.56,-2.912 -1.54,-3.864 -0.952,-0.924 -2.212,-1.372 -3.836,-1.372 m -0.364,2.156 c 2.072,0 3.276,1.344 3.276,3.612 0,1.652 -0.476,3.472 -1.232,4.872 -1.064,1.932 -2.576,2.94 -4.508,2.94 -1.988,0 -3.22,-1.4 -3.22,-3.64 0,-1.596 0.476,-3.444 1.232,-4.844 1.036,-1.904 2.604,-2.94 4.452,-2.94"
         style=""
         id="path3330" />
      <path
         d="m 688.07508,499.91418 -3.108,14.672 2.352,0 1.708,-8.092 c 0.672,-3.08 2.632,-4.984 5.152,-4.984 1.4,0 2.436,0.98 2.436,2.268 0,0.168 -0.056,0.588 -0.168,1.036 l -2.072,9.772 2.352,0 2.24,-10.528 c 0.084,-0.364 0.112,-0.7 0.112,-1.064 0,-2.128 -1.484,-3.5 -3.808,-3.5 -2.128,0 -3.976,0.756 -5.432,2.24 l 0.364,-1.82 -2.128,0"
         style=""
         id="path3332" />
    </g>
    <g
       style="font-size:28px;font-style:italic;font-variant:normal;font-weight:normal;font-stretch:normal;text-align:center;line-height:125%;letter-spacing:0px;word-spacing:0px;text-anchor:middle;fill:#000000;fill-opacity:1;stroke:none;font-family:Nimbus Sans L;-inkscape-font-specification:Nimbus Sans L Italic"
       id="text5576-9">
      <path
         d="m 362.07802,560.93418 6.384,0 c 1.764,0 3.08,-0.448 4.34,-1.456 1.764,-1.4 2.772,-3.528 2.772,-5.796 0,-2.968 -1.76401,-4.508 -5.18,-4.508 l -8.456,0 -4.34,20.412 2.632,0 1.848,-8.652 m 0.476,-2.296 1.54,-7.168 5.432,0 c 2.184,0 3.36,0.952 3.36,2.716 0,0.98 -0.336,1.904 -0.98,2.744 -0.924,1.176 -2.128,1.708 -3.92,1.708 l -5.432,0"
         style=""
         id="path3241" />
      <path
         d="m 378.79314,554.91418 -3.108,14.672 2.352,0 1.624,-7.616 c 0.728,-3.41599 2.71601,-5.124 5.796,-5.012 l 0.504,-2.38 c -0.364,-0.056 -0.588,-0.084 -0.896,-0.084 -1.624,0 -2.884,0.728 -4.62,2.716 l 0.476,-2.296 -2.128,0"
         style=""
         id="path3243" />
      <path
         d="m 393.85671,554.49418 c -2.604,0 -4.90001,1.176 -6.328,3.248 -1.26,1.792 -2.184,4.872 -2.184,7.252 0,3.108 2.156,5.236 5.292,5.236 2.68799,0 4.816,-1.092 6.384,-3.248 1.28799,-1.764 2.212,-4.816 2.212,-7.252 0,-1.484 -0.56001,-2.912 -1.54,-3.864 -0.952,-0.924 -2.21201,-1.372 -3.836,-1.372 m -0.364,2.156 c 2.07199,0 3.276,1.344 3.276,3.612 0,1.652 -0.476,3.472 -1.232,4.872 -1.064,1.932 -2.57601,2.94 -4.508,2.94 -1.988,0 -3.22,-1.4 -3.22,-3.64 0,-1.596 0.476,-3.444 1.232,-4.844 1.03599,-1.904 2.604,-2.94 4.452,-2.94"
         style=""
         id="path3245" />
      <path
         d="m 404.54264,549.17418 -4.34,20.412 2.1,0 0.476,-2.184 c 0.364,0.868 0.616,1.26 1.036,1.68 0.728,0.728 1.876,1.148 3.108,1.148 1.876,0 3.864,-0.868 5.124,-2.184 1.876,-1.988 3.108,-5.18 3.108,-8.064 0,-3.136 -2.128,-5.488 -4.956,-5.488 -1.12,0 -2.38,0.336 -3.22,0.84 -0.476,0.308 -0.84,0.616 -1.708,1.54 l 1.624,-7.7 -2.352,0 m 4.872,7.476 c 2.044,0 3.276,1.456 3.276,3.864 0,1.596 -0.476,3.388 -1.288,4.732 -1.148,1.904 -2.604,2.828 -4.424,2.828 -1.90399,0 -3.108,-1.4 -3.108,-3.612 0,-1.736 0.504,-3.64 1.288,-4.984 1.092,-1.848 2.576,-2.828 4.256,-2.828"
         style=""
         id="path3247" />
      <path
         d="m 422.87258,549.17418 -2.352,0 -4.34,20.412 2.352,0 4.34,-20.412"
         style=""
         id="path3249" />
      <path
         d="m 436.27496,563.03418 0.084,-0.476 c 0.252,-1.344 0.392,-2.52 0.392,-3.276 0,-2.688 -2.32401,-4.788 -5.348,-4.788 -2.436,0 -4.78801,1.148 -6.188,3.024 -1.316,1.764 -2.352,4.956 -2.352,7.224 0,1.512 0.644,3.052 1.736,4.088 0.97999,0.952 2.212,1.4 3.808,1.4 3.35999,0 6.244,-2.072 7.112,-5.096 l -2.352,0 c -1.008,1.932 -2.49201,2.94 -4.368,2.94 -2.212,0 -3.472,-1.372 -3.472,-3.752 0,-0.588 0.028,-0.868 0.14,-1.288 l 10.808,0 m -10.304,-2.016 c 0.728,-2.576 2.8,-4.368 5.068,-4.368 1.98799,0 3.248,1.344 3.248,3.444 0,0.28 -0.028,0.476 -0.084,0.924 l -8.232,0"
         style=""
         id="path3251" />
      <path
         d="m 441.19289,554.91418 -3.108,14.672 2.352,0 1.96,-9.212 c 0.448,-2.128 2.35201,-3.864 4.228,-3.864 1.372,0 2.296,0.784 2.296,1.932 0,0.308 -0.028,0.672 -0.112,1.036 l -2.156,10.108 2.352,0 1.96,-9.212 c 0.448,-2.184 2.38001,-3.864 4.396,-3.864 1.316,0 2.128,0.812 2.128,2.156 0,0.42 0,0.42 -0.252,1.372 l -2.016,9.548 2.352,0 2.212,-10.444 c 0.084,-0.308 0.168,-1.232 0.168,-1.54 0,-0.728 -0.336,-1.512 -0.896,-2.156 -0.616,-0.672 -1.372,-0.952 -2.66,-0.952 -1.81999,0 -3.416,0.728 -5.068,2.324 -0.448,-1.568 -1.54,-2.324 -3.388,-2.324 -1.90399,0 -3.192,0.56 -4.984,2.24 l 0.364,-1.82 -2.128,0"
         style=""
         id="path3253" />
      <path
         d="m 489.64208,549.17418 -2.492,0 -3.556,16.744 -7,-16.744 -2.912,0 -4.34,20.412 2.492,0 3.528,-16.548 6.972,16.548 2.968,0 4.34,-20.412"
         style=""
         id="path3255" />
      <path
         d="m 502.90446,568.15818 c -0.252,0.056 -0.364,0.056 -0.476,0.056 -0.728,0 -1.064,-0.252 -1.064,-0.812 0,-0.112 0,-0.196 0.028,-0.28 l 1.792,-8.428 c 0.168,-0.756 0.168,-0.756 0.168,-1.036 0,-1.904 -1.93201,-3.164 -4.872,-3.164 -3.892,0 -6.272,1.652 -6.804,4.76 l 2.352,0 c 0.252,-0.784 0.448,-1.176 0.84,-1.568 0.616,-0.616 1.792,-1.036 2.996,-1.036 1.67999,0 2.968,0.756 2.968,1.792 0,0.112 -0.028,0.308 -0.056,0.532 l -0.084,0.504 c -0.252,1.148 -0.78401,1.456 -2.828,1.652 -3.752,0.336 -4.92801,0.616 -6.3,1.484 -1.456,0.924 -2.296,2.408 -2.296,4.032 0,2.24 1.512,3.584 4.032,3.584 0.97999,0 2.156,-0.196 3.164,-0.56 0.89599,-0.308 1.316,-0.588 2.464,-1.596 l 0,0.196 0,0.112 c 0,1.148 0.784,1.848 2.128,1.848 0.308,0 0.392,0 1.092,-0.168 0.056,-0.028 0.224,-0.056 0.392,-0.084 l 0.364,-1.82 m -3.388,-3.164 c -0.364,1.736 -2.82801,3.22 -5.292,3.22 -1.596,0 -2.492,-0.672 -2.492,-1.848 0,-0.924 0.532,-1.848 1.372,-2.352 0.672,-0.42 1.512,-0.644 2.884,-0.84 2.63199,-0.364 2.856,-0.392 4.088,-0.812 l -0.56,2.632"
         style=""
         id="path3257" />
      <path
         d="m 508.13039,554.91418 -3.108,14.672 2.352,0 1.96,-9.212 c 0.448,-2.128 2.35201,-3.864 4.228,-3.864 1.372,0 2.296,0.784 2.296,1.932 0,0.308 -0.028,0.672 -0.112,1.036 l -2.156,10.108 2.352,0 1.96,-9.212 c 0.448,-2.184 2.38001,-3.864 4.396,-3.864 1.316,0 2.128,0.812 2.128,2.156 0,0.42 0,0.42 -0.252,1.372 l -2.016,9.548 2.352,0 2.212,-10.444 c 0.084,-0.308 0.168,-1.232 0.168,-1.54 0,-0.728 -0.336,-1.512 -0.896,-2.156 -0.616,-0.672 -1.372,-0.952 -2.66,-0.952 -1.81999,0 -3.416,0.728 -5.068,2.324 -0.448,-1.568 -1.54,-2.324 -3.388,-2.324 -1.90399,0 -3.192,0.56 -4.984,2.24 l 0.364,-1.82 -2.128,0"
         style=""
         id="path3259" />
      <path
         d="m 542.14996,563.03418 0.084,-0.476 c 0.252,-1.344 0.392,-2.52 0.392,-3.276 0,-2.688 -2.32401,-4.788 -5.348,-4.788 -2.436,0 -4.78801,1.148 -6.188,3.024 -1.316,1.764 -2.352,4.956 -2.352,7.224 0,1.512 0.644,3.052 1.736,4.088 0.97999,0.952 2.212,1.4 3.808,1.4 3.35999,0 6.244,-2.072 7.112,-5.096 l -2.352,0 c -1.008,1.932 -2.49201,2.94 -4.368,2.94 -2.212,0 -3.472,-1.372 -3.472,-3.752 0,-0.588 0.028,-0.868 0.14,-1.288 l 10.808,0 m -10.304,-2.016 c 0.728,-2.576 2.8,-4.368 5.068,-4.368 1.98799,0 3.248,1.344 3.248,3.444 0,0.28 -0.028,0.476 -0.084,0.924 l -8.232,0"
         style=""
         id="path3261" />
    </g>
    <g
       style="font-size:28px;font-style:italic;font-variant:normal;font-weight:normal;font-stretch:normal;text-align:center;line-height:125%;letter-spacing:0px;word-spacing:0px;text-anchor:middle;fill:#000000;fill-opacity:1;stroke:none;font-family:Nimbus Sans L;-inkscape-font-specification:Nimbus Sans L Italic"
       id="text5576-8">
      <path
         d="m 368.31239,650.93418 6.384,0 c 1.764,0 3.08,-0.448 4.34,-1.456 1.764,-1.4 2.772,-3.528 2.772,-5.796 0,-2.968 -1.764,-4.508 -5.18,-4.508 l -8.456,0 -4.34,20.412 2.632,0 1.848,-8.652 m 0.476,-2.296 1.54,-7.168 5.432,0 c 2.184,0 3.36,0.952 3.36,2.716 0,0.98 -0.336,1.904 -0.98,2.744 -0.924,1.176 -2.128,1.708 -3.92,1.708 l -5.432,0"
         style=""
         id="path3189" />
      <path
         d="m 385.02752,644.91418 -3.108,14.672 2.352,0 1.624,-7.616 c 0.728,-3.41599 2.716,-5.124 5.796,-5.012 l 0.504,-2.38 c -0.364,-0.056 -0.588,-0.084 -0.896,-0.084 -1.624,0 -2.884,0.728 -4.62,2.716 l 0.476,-2.296 -2.128,0"
         style=""
         id="path3191" />
      <path
         d="m 400.09108,644.49418 c -2.604,0 -4.9,1.176 -6.328,3.248 -1.26,1.792 -2.184,4.872 -2.184,7.252 0,3.108 2.156,5.236 5.292,5.236 2.688,0 4.816,-1.092 6.384,-3.248 1.288,-1.764 2.212,-4.816 2.212,-7.252 0,-1.484 -0.56,-2.912 -1.54,-3.864 -0.952,-0.924 -2.212,-1.372 -3.836,-1.372 m -0.364,2.156 c 2.072,0 3.276,1.344 3.276,3.612 0,1.652 -0.476,3.472 -1.232,4.872 -1.064,1.932 -2.576,2.94 -4.508,2.94 -1.988,0 -3.22,-1.4 -3.22,-3.64 0,-1.596 0.476,-3.444 1.232,-4.844 1.036,-1.904 2.604,-2.94 4.452,-2.94"
         style=""
         id="path3193" />
      <path
         d="m 410.77702,639.17418 -4.34,20.412 2.1,0 0.476,-2.184 c 0.364,0.868 0.616,1.26 1.036,1.68 0.728,0.728 1.876,1.148 3.108,1.148 1.876,0 3.864,-0.868 5.124,-2.184 1.876,-1.988 3.108,-5.18 3.108,-8.064 0,-3.136 -2.128,-5.488 -4.956,-5.488 -1.12,0 -2.38,0.336 -3.22,0.84 -0.476,0.308 -0.84,0.616 -1.708,1.54 l 1.624,-7.7 -2.352,0 m 4.872,7.476 c 2.044,0 3.276,1.456 3.276,3.864 0,1.596 -0.476,3.388 -1.288,4.732 -1.148,1.904 -2.604,2.828 -4.424,2.828 -1.904,0 -3.108,-1.4 -3.108,-3.612 0,-1.736 0.504,-3.64 1.288,-4.984 1.092,-1.848 2.576,-2.828 4.256,-2.828"
         style=""
         id="path3195" />
      <path
         d="m 429.10696,639.17418 -2.352,0 -4.34,20.412 2.352,0 4.34,-20.412"
         style=""
         id="path3197" />
      <path
         d="m 442.50933,653.03418 0.084,-0.476 c 0.252,-1.344 0.392,-2.52 0.392,-3.276 0,-2.688 -2.324,-4.788 -5.348,-4.788 -2.436,0 -4.788,1.148 -6.188,3.024 -1.316,1.764 -2.352,4.956 -2.352,7.224 0,1.512 0.644,3.052 1.736,4.088 0.98,0.952 2.212,1.4 3.808,1.4 3.36,0 6.244,-2.072 7.112,-5.096 l -2.352,0 c -1.008,1.932 -2.492,2.94 -4.368,2.94 -2.212,0 -3.472,-1.372 -3.472,-3.752 0,-0.588 0.028,-0.868 0.14,-1.288 l 10.808,0 m -10.304,-2.016 c 0.728,-2.576 2.8,-4.368 5.068,-4.368 1.988,0 3.248,1.344 3.248,3.444 0,0.28 -0.028,0.476 -0.084,0.924 l -8.232,0"
         style=""
         id="path3199" />
      <path
         d="m 447.42727,644.91418 -3.108,14.672 2.352,0 1.96,-9.212 c 0.448,-2.128 2.352,-3.864 4.228,-3.864 1.372,0 2.296,0.784 2.296,1.932 0,0.308 -0.028,0.672 -0.112,1.036 l -2.156,10.108 2.352,0 1.96,-9.212 c 0.448,-2.184 2.38,-3.864 4.396,-3.864 1.316,0 2.128,0.812 2.128,2.156 0,0.42 0,0.42 -0.252,1.372 l -2.016,9.548 2.352,0 2.212,-10.444 c 0.084,-0.308 0.168,-1.232 0.168,-1.54 0,-0.728 -0.336,-1.512 -0.896,-2.156 -0.616,-0.672 -1.372,-0.952 -2.66,-0.952 -1.82,0 -3.416,0.728 -5.068,2.324 -0.448,-1.568 -1.54,-2.324 -3.388,-2.324 -1.904,0 -3.192,0.56 -4.984,2.24 l 0.364,-1.82 -2.128,0"
         style=""
         id="path3201" />
      <path
         d="m 483.22046,639.17418 -2.632,0 -4.34,20.412 2.632,0 4.34,-20.412"
         style=""
         id="path3203" />
      <path
         d="m 486.28208,644.91418 -3.108,14.672 2.352,0 1.708,-8.092 c 0.672,-3.08 2.632,-4.984 5.152,-4.984 1.4,0 2.436,0.98 2.436,2.268 0,0.168 -0.056,0.588 -0.168,1.036 l -2.072,9.772 2.352,0 2.24,-10.528 c 0.084,-0.364 0.112,-0.7 0.112,-1.064 0,-2.128 -1.484,-3.5 -3.808,-3.5 -2.128,0 -3.976,0.756 -5.432,2.24 l 0.364,-1.82 -2.128,0"
         style=""
         id="path3205" />
      <path
         d="m 496.99602,665.55018 2.352,0 1.68,-7.868 c 0.868,1.82 2.016,2.548 4.004,2.548 2.184,0 4.284,-1.008 5.712,-2.772 1.512,-1.848 2.464,-4.76 2.464,-7.504 0,-3.35999 -1.876,-5.46 -4.872,-5.46 -1.232,0 -2.464,0.364 -3.584,1.092 -0.896,0.56 -1.232,0.924 -1.596,1.68 l 0.504,-2.352 -2.268,0 -4.396,20.636 m 10.416,-18.9 c 2.1,0 3.332,1.456 3.332,3.864 0,1.512 -0.476,3.332 -1.232,4.732 -1.036,1.904 -2.436,2.828 -4.256,2.828 -2.044,0 -3.332,-1.4 -3.332,-3.64 0,-1.68 0.476,-3.5 1.316,-4.956 1.036,-1.876 2.436,-2.828 4.172,-2.828"
         style=""
         id="path3207" />
      <path
         d="m 525.90996,659.58618 3.108,-14.672 -2.352,0 -1.764,8.316 c -0.644,3.024 -2.63201,4.984 -5.012,4.984 -1.512,0 -2.492,-0.84 -2.492,-2.156 0,-0.224 0.028,-0.476 0.084,-0.756 l 2.212,-10.388 -2.352,0 -2.408,11.312 c -0.056,0.28 -0.084,0.588 -0.084,0.952 0,1.904 1.456,3.052 3.864,3.052 2.18399,0 3.78,-0.672 5.404,-2.24 l -0.336,1.596 2.128,0"
         style=""
         id="path3209" />
      <path
         d="m 538.21989,644.91418 -2.492,0 0.868,-4.032 -2.352,0 -0.868,4.032 -1.988,0 -0.392,1.876 1.988,0 -2.212,10.36 c -0.056,0.28 -0.084,0.588 -0.084,0.868 0,1.372 0.952,2.212 2.492,2.212 0.56,0 1.428,-0.084 1.82,-0.196 l 0.448,-2.044 c -0.868,0.196 -1.008,0.224 -1.344,0.224 -0.616,0 -1.008,-0.308 -1.008,-0.756 0,-0.084 0.028,-0.224 0.056,-0.392 l 2.184,-10.276 2.492,0 0.392,-1.876"
         style=""
         id="path3211" />
    </g>
    <g
       style="font-size:28px;font-style:italic;font-variant:normal;font-weight:normal;font-stretch:normal;text-align:center;line-height:125%;letter-spacing:0px;word-spacing:0px;text-anchor:middle;fill:#000000;fill-opacity:1;stroke:none;font-family:Nimbus Sans L;-inkscape-font-specification:Nimbus Sans L Italic"
       id="text5576-3">
      <path
         d="m 365.46646,735.16618 c 0.168,-0.784 0.224,-1.148 0.224,-1.568 0,-1.204 -0.58801,-2.492 -1.512,-3.304 -1.148,-1.008 -2.63201,-1.456 -4.816,-1.456 -2.884,0 -5.15201,0.812 -6.664,2.38 -1.148,1.176 -2.016,3.164 -2.016,4.592 0,1.764 1.232,3.248 3.108,3.78 l 4.788,1.344 c 2.23999,0.644 3.164,1.456 3.164,2.8 0,0.868 -0.532,1.932 -1.316,2.66 -1.148,1.036 -2.80001,1.568 -5.04,1.568 -3.164,0 -4.62,-1.176 -4.62,-3.724 0,-0.364 0.028,-0.616 0.112,-1.148 l -2.436,0 c -0.196,0.728 -0.252,1.176 -0.252,1.764 0,3.36 2.52,5.376 6.748,5.376 2.93999,0 5.404,-0.812 7.056,-2.352 1.42799,-1.316 2.436,-3.36 2.436,-4.928 0,-0.728 -0.252,-1.512 -0.672,-2.184 -0.616,-0.98 -1.42801,-1.54 -2.744,-1.904 l -4.816,-1.372 c -2.156,-0.616 -2.828,-1.176 -2.828,-2.408 0,-0.98 0.42,-1.848 1.232,-2.604 1.03599,-0.924 2.408,-1.372 4.256,-1.372 1.56799,0 2.744,0.308 3.36,0.868 0.532,0.476 0.896,1.372 0.896,2.184 0,0.252 -0.028,0.448 -0.112,1.008 l 2.464,0"
         style=""
         id="path3131" />
      <path
         d="m 374.64958,734.91418 -2.492,0 0.868,-4.032 -2.352,0 -0.868,4.032 -1.988,0 -0.392,1.876 1.988,0 -2.212,10.36 c -0.056,0.28 -0.084,0.588 -0.084,0.868 0,1.372 0.952,2.212 2.492,2.212 0.56,0 1.428,-0.084 1.82,-0.196 l 0.448,-2.044 c -0.868,0.196 -1.008,0.224 -1.344,0.224 -0.616,0 -1.008,-0.308 -1.008,-0.756 0,-0.084 0.028,-0.224 0.056,-0.392 l 2.184,-10.276 2.492,0 0.392,-1.876"
         style=""
         id="path3133" />
      <path
         d="m 385.69121,749.58618 3.108,-14.672 -2.352,0 -1.764,8.316 c -0.644,3.024 -2.63201,4.984 -5.012,4.984 -1.512,0 -2.492,-0.84 -2.492,-2.156 0,-0.224 0.028,-0.476 0.084,-0.756 l 2.212,-10.388 -2.352,0 -2.408,11.312 c -0.056,0.28 -0.084,0.588 -0.084,0.952 0,1.904 1.456,3.052 3.864,3.052 2.18399,0 3.78,-0.672 5.404,-2.24 l -0.336,1.596 2.128,0"
         style=""
         id="path3135" />
      <path
         d="m 405.95314,729.17418 -2.352,0 -1.68,7.868 c -0.896,-1.82 -2.016,-2.548 -4.004,-2.548 -4.64799,0 -8.12,4.42401 -8.12,10.332 0,3.276 1.87601,5.404 4.788,5.404 1.204,0 2.492,-0.392 3.612,-1.064 0.84,-0.504 1.204,-0.924 1.596,-1.708 l -0.448,2.128 2.268,0 4.34,-20.412 m -8.26,7.476 c 2.072,0 3.304,1.4 3.304,3.78 0,1.652 -0.448,3.36 -1.288,4.816 -1.092,1.876 -2.464,2.828 -4.172,2.828 -2.07199,0 -3.276,-1.4 -3.276,-3.808 0,-1.568 0.476,-3.36 1.232,-4.788 1.064,-1.932 2.40801,-2.828 4.2,-2.828"
         style=""
         id="path3137" />
      <path
         d="m 419.10308,743.03418 0.084,-0.476 c 0.252,-1.344 0.392,-2.52 0.392,-3.276 0,-2.688 -2.324,-4.788 -5.348,-4.788 -2.436,0 -4.788,1.148 -6.188,3.024 -1.316,1.764 -2.352,4.956 -2.352,7.224 0,1.512 0.644,3.052 1.736,4.088 0.98,0.952 2.212,1.4 3.808,1.4 3.36,0 6.244,-2.072 7.112,-5.096 l -2.352,0 c -1.008,1.932 -2.492,2.94 -4.368,2.94 -2.212,0 -3.472,-1.372 -3.472,-3.752 0,-0.588 0.028,-0.868 0.14,-1.288 l 10.808,0 m -10.304,-2.016 c 0.728,-2.576 2.8,-4.368 5.068,-4.368 1.988,0 3.248,1.344 3.248,3.444 0,0.28 -0.028,0.476 -0.084,0.924 l -8.232,0"
         style=""
         id="path3139" />
      <path
         d="m 423.99302,734.91418 -3.108,14.672 2.352,0 1.708,-8.092 c 0.672,-3.08 2.632,-4.984 5.152,-4.984 1.4,0 2.436,0.98 2.436,2.268 0,0.168 -0.056,0.588 -0.168,1.036 l -2.072,9.772 2.352,0 2.24,-10.528 c 0.084,-0.364 0.112,-0.7 0.112,-1.064 0,-2.128 -1.484,-3.5 -3.808,-3.5 -2.128,0 -3.976,0.756 -5.432,2.24 l 0.364,-1.82 -2.128,0"
         style=""
         id="path3141" />
      <path
         d="m 444.75896,734.91418 -2.492,0 0.868,-4.032 -2.352,0 -0.868,4.032 -1.988,0 -0.392,1.876 1.988,0 -2.212,10.36 c -0.056,0.28 -0.084,0.588 -0.084,0.868 0,1.372 0.952,2.212 2.492,2.212 0.56,0 1.428,-0.084 1.82,-0.196 l 0.448,-2.044 c -0.868,0.196 -1.008,0.224 -1.344,0.224 -0.616,0 -1.008,-0.308 -1.008,-0.756 0,-0.084 0.028,-0.224 0.056,-0.392 l 2.184,-10.276 2.492,0 0.392,-1.876"
         style=""
         id="path3143" />
      <path
         d="m 469.81021,735.16618 c 0.168,-0.784 0.224,-1.148 0.224,-1.568 0,-1.204 -0.58801,-2.492 -1.512,-3.304 -1.148,-1.008 -2.63201,-1.456 -4.816,-1.456 -2.884,0 -5.15201,0.812 -6.664,2.38 -1.148,1.176 -2.016,3.164 -2.016,4.592 0,1.764 1.232,3.248 3.108,3.78 l 4.788,1.344 c 2.23999,0.644 3.164,1.456 3.164,2.8 0,0.868 -0.532,1.932 -1.316,2.66 -1.148,1.036 -2.80001,1.568 -5.04,1.568 -3.164,0 -4.62,-1.176 -4.62,-3.724 0,-0.364 0.028,-0.616 0.112,-1.148 l -2.436,0 c -0.196,0.728 -0.252,1.176 -0.252,1.764 0,3.36 2.52,5.376 6.748,5.376 2.93999,0 5.404,-0.812 7.056,-2.352 1.42799,-1.316 2.436,-3.36 2.436,-4.928 0,-0.728 -0.252,-1.512 -0.672,-2.184 -0.616,-0.98 -1.42801,-1.54 -2.744,-1.904 l -4.816,-1.372 c -2.156,-0.616 -2.828,-1.176 -2.828,-2.408 0,-0.98 0.42,-1.848 1.232,-2.604 1.03599,-0.924 2.408,-1.372 4.256,-1.372 1.56799,0 2.744,0.308 3.36,0.868 0.532,0.476 0.896,1.372 0.896,2.184 0,0.252 -0.028,0.448 -0.112,1.008 l 2.464,0"
         style=""
         id="path3145" />
      <path
         d="m 479.49733,734.49418 c -2.604,0 -4.9,1.176 -6.328,3.248 -1.26,1.792 -2.184,4.872 -2.184,7.252 0,3.108 2.156,5.236 5.292,5.236 2.688,0 4.816,-1.092 6.384,-3.248 1.288,-1.764 2.212,-4.816 2.212,-7.252 0,-1.484 -0.56,-2.912 -1.54,-3.864 -0.952,-0.924 -2.212,-1.372 -3.836,-1.372 m -0.364,2.156 c 2.072,0 3.276,1.344 3.276,3.612 0,1.652 -0.476,3.472 -1.232,4.872 -1.064,1.932 -2.576,2.94 -4.508,2.94 -1.988,0 -3.22,-1.4 -3.22,-3.64 0,-1.596 0.476,-3.444 1.232,-4.844 1.036,-1.904 2.604,-2.94 4.452,-2.94"
         style=""
         id="path3147" />
      <path
         d="m 492.92727,729.17418 -2.352,0 -4.34,20.412 2.352,0 4.34,-20.412"
         style=""
         id="path3149" />
      <path
         d="m 504.08964,749.58618 3.108,-14.672 -2.352,0 -1.764,8.316 c -0.644,3.024 -2.632,4.984 -5.012,4.984 -1.512,0 -2.492,-0.84 -2.492,-2.156 0,-0.224 0.028,-0.476 0.084,-0.756 l 2.212,-10.388 -2.352,0 -2.408,11.312 c -0.056,0.28 -0.084,0.588 -0.084,0.952 0,1.904 1.45601,3.052 3.864,3.052 2.184,0 3.78,-0.672 5.404,-2.24 l -0.336,1.596 2.128,0"
         style=""
         id="path3151" />
      <path
         d="m 516.39958,734.91418 -2.492,0 0.868,-4.032 -2.352,0 -0.868,4.032 -1.988,0 -0.392,1.876 1.988,0 -2.212,10.36 c -0.056,0.28 -0.084,0.588 -0.084,0.868 0,1.372 0.952,2.212 2.492,2.212 0.56,0 1.428,-0.084 1.82,-0.196 l 0.448,-2.044 c -0.868,0.196 -1.008,0.224 -1.344,0.224 -0.616,0 -1.008,-0.308 -1.008,-0.756 0,-0.084 0.028,-0.224 0.056,-0.392 l 2.184,-10.276 2.492,0 0.392,-1.876"
         style=""
         id="path3153" />
      <path
         d="m 521.22521,734.91418 -2.352,0 -3.108,14.672 2.352,0 3.108,-14.672 m 1.232,-5.74 -2.352,0 -0.616,2.884 2.352,0 0.616,-2.884"
         style=""
         id="path3155" />
      <path
         d="m 530.90358,734.49418 c -2.604,0 -4.9,1.176 -6.328,3.248 -1.26,1.792 -2.184,4.872 -2.184,7.252 0,3.108 2.156,5.236 5.292,5.236 2.688,0 4.816,-1.092 6.384,-3.248 1.288,-1.764 2.212,-4.816 2.212,-7.252 0,-1.484 -0.56,-2.912 -1.54,-3.864 -0.952,-0.924 -2.212,-1.372 -3.836,-1.372 m -0.364,2.156 c 2.072,0 3.276,1.344 3.276,3.612 0,1.652 -0.476,3.472 -1.232,4.872 -1.064,1.932 -2.576,2.94 -4.508,2.94 -1.988,0 -3.22,-1.4 -3.22,-3.64 0,-1.596 0.476,-3.444 1.232,-4.844 1.036,-1.904 2.604,-2.94 4.452,-2.94"
         style=""
         id="path3157" />
      <path
         d="m 540.80552,734.91418 -3.108,14.672 2.352,0 1.708,-8.092 c 0.672,-3.08 2.632,-4.984 5.152,-4.984 1.4,0 2.436,0.98 2.436,2.268 0,0.168 -0.056,0.588 -0.168,1.036 l -2.072,9.772 2.352,0 2.24,-10.528 c 0.084,-0.364 0.112,-0.7 0.112,-1.064 0,-2.128 -1.484,-3.5 -3.808,-3.5 -2.128,0 -3.976,0.756 -5.432,2.24 l 0.364,-1.82 -2.128,0"
         style=""
         id="path3159" />
    </g>
    <g
       style="font-size:28px;font-style:italic;font-variant:normal;font-weight:normal;font-stretch:normal;text-align:center;line-height:125%;letter-spacing:0px;word-spacing:0px;text-anchor:middle;fill:#000000;fill-opacity:1;stroke:none;font-family:Nimbus Sans L;-inkscape-font-specification:Nimbus Sans L Italic"
       id="text5576-2">
      <path
         d="m 431.77746,828.80618 -8.512,0 -0.504,2.296 6.216,0 -0.168,0.728 c -0.42,1.848 -1.23201,3.136 -2.66,4.312 -1.512,1.232 -3.13601,1.82 -5.068,1.82 -2.072,0 -3.86401,-0.784 -4.732,-2.072 -0.644,-0.98 -1.036,-2.464 -1.036,-4.06 0,-2.464 0.98,-5.348 2.464,-7.308 1.70799,-2.212 4.116,-3.416 6.832,-3.416 1.70799,0 3.108,0.504 4.032,1.484 0.728,0.728 1.008,1.484 1.036,2.772 l 2.548,0 0,-0.196 0,-0.112 0,-0.168 c 0,-3.72399 -2.71601,-6.048 -7.112,-6.048 -3.248,0 -5.99201,1.12 -8.176,3.304 -2.688,2.688 -4.312,6.49601 -4.312,10.136 0,2.632 0.952,5.04 2.52,6.3 1.28799,1.064 3.108,1.652 5.012,1.652 1.81999,0 3.752,-0.504 5.264,-1.372 0.672,-0.392 1.204,-0.784 2.268,-1.68 l 0.112,2.52 1.652,0 2.324,-10.892"
         style=""
         id="path3105" />
      <path
         d="m 436.37908,824.91418 -3.108,14.672 2.352,0 1.624,-7.616 c 0.728,-3.41599 2.716,-5.124 5.796,-5.012 l 0.504,-2.38 c -0.364,-0.056 -0.588,-0.084 -0.896,-0.084 -1.624,0 -2.884,0.728 -4.62,2.716 l 0.476,-2.296 -2.128,0"
         style=""
         id="path3107" />
      <path
         d="m 456.14664,838.15818 c -0.252,0.056 -0.364,0.056 -0.476,0.056 -0.728,0 -1.064,-0.252 -1.064,-0.812 0,-0.112 0,-0.196 0.028,-0.28 l 1.792,-8.428 c 0.168,-0.756 0.168,-0.756 0.168,-1.036 0,-1.904 -1.932,-3.164 -4.872,-3.164 -3.89199,0 -6.272,1.652 -6.804,4.76 l 2.352,0 c 0.252,-0.784 0.448,-1.176 0.84,-1.568 0.616,-0.616 1.792,-1.036 2.996,-1.036 1.68,0 2.968,0.756 2.968,1.792 0,0.112 -0.028,0.308 -0.056,0.532 l -0.084,0.504 c -0.252,1.148 -0.784,1.456 -2.828,1.652 -3.75199,0.336 -4.928,0.616 -6.3,1.484 -1.456,0.924 -2.296,2.408 -2.296,4.032 0,2.24 1.51201,3.584 4.032,3.584 0.98,0 2.156,-0.196 3.164,-0.56 0.896,-0.308 1.316,-0.588 2.464,-1.596 l 0,0.196 0,0.112 c 0,1.148 0.784,1.848 2.128,1.848 0.308,0 0.392,0 1.092,-0.168 0.056,-0.028 0.224,-0.056 0.392,-0.084 l 0.364,-1.82 m -3.388,-3.164 c -0.364,1.736 -2.828,3.22 -5.292,3.22 -1.596,0 -2.492,-0.672 -2.492,-1.848 0,-0.924 0.532,-1.848 1.372,-2.352 0.672,-0.42 1.512,-0.644 2.884,-0.84 2.632,-0.364 2.856,-0.392 4.088,-0.812 l -0.56,2.632"
         style=""
         id="path3109" />
      <path
         d="m 474.47658,819.17418 -2.352,0 -1.68,7.868 c -0.896,-1.82 -2.016,-2.548 -4.004,-2.548 -4.64799,0 -8.12,4.42401 -8.12,10.332 0,3.276 1.876,5.404 4.788,5.404 1.204,0 2.492,-0.392 3.612,-1.064 0.84,-0.504 1.204,-0.924 1.596,-1.708 l -0.448,2.128 2.268,0 4.34,-20.412 m -8.26,7.476 c 2.072,0 3.304,1.4 3.304,3.78 0,1.652 -0.448,3.36 -1.288,4.816 -1.092,1.876 -2.464,2.828 -4.172,2.828 -2.072,0 -3.276,-1.4 -3.276,-3.808 0,-1.568 0.476,-3.36 1.232,-4.788 1.064,-1.932 2.408,-2.828 4.2,-2.828"
         style=""
         id="path3111" />
      <path
         d="m 487.62652,833.03418 0.084,-0.476 c 0.252,-1.344 0.392,-2.52 0.392,-3.276 0,-2.688 -2.324,-4.788 -5.348,-4.788 -2.436,0 -4.788,1.148 -6.188,3.024 -1.316,1.764 -2.352,4.956 -2.352,7.224 0,1.512 0.644,3.052 1.736,4.088 0.98,0.952 2.212,1.4 3.808,1.4 3.35999,0 6.244,-2.072 7.112,-5.096 l -2.352,0 c -1.008,1.932 -2.492,2.94 -4.368,2.94 -2.212,0 -3.472,-1.372 -3.472,-3.752 0,-0.588 0.028,-0.868 0.14,-1.288 l 10.808,0 m -10.304,-2.016 c 0.728,-2.576 2.8,-4.368 5.068,-4.368 1.988,0 3.248,1.344 3.248,3.444 0,0.28 -0.028,0.476 -0.084,0.924 l -8.232,0"
         style=""
         id="path3113" />
    </g>
  </g>
</svg>
